<svg width="36" height="24" viewBox="0 0 36 24" fill="none" xmlns="http://www.w3.org/2000/svg">
<path d="M11.4559 10.0845L18.1294 5.42516L24.8057 10.0883L28.6866 7.37572L18.1294 0L7.57227 7.37383L11.4559 10.0845Z" fill="#F3BA2F"/>
<path d="M0.945312 12.0012L4.82622 9.28857L8.70985 12.0012L4.82622 14.7118L0.945312 12.0012Z" fill="#F3BA2F"/>
<path d="M11.4559 13.9155L18.1294 18.5767L24.8057 13.9136L28.6893 16.6224L18.1321 23.9981L7.57227 16.6281L11.4559 13.9155Z" fill="#F3BA2F"/>
<path d="M27.542 12.0012L31.4229 9.28857L35.3065 11.9993L31.4229 14.7137L27.542 12.0012Z" fill="#F3BA2F"/>
<path d="M22.0682 11.999L18.1303 9.24658L15.2182 11.2805L14.8817 11.5137L14.1924 11.9952L18.1303 14.7438L22.0682 12.0009V11.999Z" fill="#F3BA2F"/>
</svg>
