<svg width="24" height="24" viewBox="0 0 24 24" fill="none" xmlns="http://www.w3.org/2000/svg">
<path fill-rule="evenodd" clip-rule="evenodd" d="M23.6095 2.27614C24.1302 1.75544 24.1302 0.911223 23.6095 0.390524C23.0888 -0.130175 22.2446 -0.130175 21.7239 0.390524L12 10.1144L2.27614 0.390524C1.75544 -0.130175 0.911224 -0.130175 0.390526 0.390524C-0.130173 0.911223 -0.130173 1.75544 0.390526 2.27614L10.1144 12L0.390524 21.7239C-0.130175 22.2446 -0.130175 23.0888 0.390524 23.6095C0.911223 24.1302 1.75544 24.1302 2.27614 23.6095L12 13.8856L21.7239 23.6095C22.2446 24.1302 23.0888 24.1302 23.6095 23.6095C24.1302 23.0888 24.1302 22.2446 23.6095 21.7239L13.8856 12L23.6095 2.27614Z" fill="url(#paint0_linear_166_1281)"/>
<defs>
<linearGradient id="paint0_linear_166_1281" x1="-3.81176" y1="-14.4658" x2="48.9962" y2="3.67535" gradientUnits="userSpaceOnUse">
<stop stop-color="#F59848"/>
<stop offset="0.515115" stop-color="#BD5103"/>
<stop offset="0.859876" stop-color="#573E2A"/>
<stop offset="1" stop-color="#1F1F1F"/>
</linearGradient>
</defs>
</svg>
