<svg width="18" height="18" viewBox="0 0 18 18" fill="none" xmlns="http://www.w3.org/2000/svg">
<g clip-path="url(#clip0_245_2631)">
<path d="M16.5 8.3099V8.9999C16.4991 10.6172 15.9754 12.1909 15.007 13.4863C14.0386 14.7816 12.6775 15.7293 11.1265 16.1878C9.57557 16.6464 7.91794 16.5913 6.40085 16.0308C4.88376 15.4704 3.58849 14.4345 2.70822 13.0777C1.82795 11.7209 1.40984 10.1159 1.51626 8.50214C1.62267 6.88832 2.24791 5.35214 3.29871 4.1227C4.34951 2.89326 5.76959 2.03644 7.34714 1.68001C8.92469 1.32358 10.5752 1.48665 12.0525 2.1449" stroke="url(#paint0_linear_245_2631)" stroke-width="2" stroke-linecap="round" stroke-linejoin="round"/>
<path d="M16.5 2.99988L9 10.5074L6.75 8.25738" stroke="url(#paint1_linear_245_2631)" stroke-width="2" stroke-linecap="round" stroke-linejoin="round"/>
</g>
<defs>
<linearGradient id="paint0_linear_245_2631" x1="-0.882353" y1="-7.5455" x2="32.1227" y2="3.79269" gradientUnits="userSpaceOnUse">
<stop stop-color="#F59848"/>
<stop offset="0.515115" stop-color="#BD5103"/>
<stop offset="0.859876" stop-color="#573E2A"/>
<stop offset="1" stop-color="#1F1F1F"/>
</linearGradient>
<linearGradient id="paint1_linear_245_2631" x1="5.20147" y1="-1.52519" x2="25.2049" y2="7.39919" gradientUnits="userSpaceOnUse">
<stop stop-color="#F59848"/>
<stop offset="0.515115" stop-color="#BD5103"/>
<stop offset="0.859876" stop-color="#573E2A"/>
<stop offset="1" stop-color="#1F1F1F"/>
</linearGradient>
<clipPath id="clip0_245_2631">
<rect width="18" height="18" fill="white"/>
</clipPath>
</defs>
</svg>
