<svg width="109" height="112" viewBox="0 0 109 112" fill="none" xmlns="http://www.w3.org/2000/svg">
<g filter="url(#filter0_d_245_4852)">
<circle cx="54" cy="57" r="35" fill="url(#paint0_linear_245_4852)"/>
</g>
<g filter="url(#filter1_f_245_4852)">
<path fill-rule="evenodd" clip-rule="evenodd" d="M47.118 30.491C49.244 31.3658 50.5111 33.8662 50.4147 36.963C50.3245 39.8655 48.5473 42.995 46.6448 45.7053C45.0215 48.0176 42.9441 49.3307 40.8361 50.6081C38.4518 52.0531 35.8969 54.0658 33.8992 53.4293C31.7168 52.7339 30.5596 50.2234 30.3993 47.2826C30.238 44.3259 31.1247 40.8199 33.0509 37.8714C34.854 35.1112 37.484 33.9535 39.9527 32.6583C42.4516 31.3472 45.1165 29.6675 47.118 30.491Z" fill="white"/>
</g>
<defs>
<filter id="filter0_d_245_4852" x="19" y="22" width="90" height="90" filterUnits="userSpaceOnUse" color-interpolation-filters="sRGB">
<feFlood flood-opacity="0" result="BackgroundImageFix"/>
<feColorMatrix in="SourceAlpha" type="matrix" values="0 0 0 0 0 0 0 0 0 0 0 0 0 0 0 0 0 0 127 0" result="hardAlpha"/>
<feOffset dx="10" dy="10"/>
<feGaussianBlur stdDeviation="5"/>
<feComposite in2="hardAlpha" operator="out"/>
<feColorMatrix type="matrix" values="0 0 0 0 1 0 0 0 0 0.970833 0 0 0 0 0.970833 0 0 0 0.23 0"/>
<feBlend mode="normal" in2="BackgroundImageFix" result="effect1_dropShadow_245_4852"/>
<feBlend mode="normal" in="SourceGraphic" in2="effect1_dropShadow_245_4852" result="shape"/>
</filter>
<filter id="filter1_f_245_4852" x="0.380615" y="0.272766" width="80.0393" height="83.2775" filterUnits="userSpaceOnUse" color-interpolation-filters="sRGB">
<feFlood flood-opacity="0" result="BackgroundImageFix"/>
<feBlend mode="normal" in="SourceGraphic" in2="BackgroundImageFix" result="shape"/>
<feGaussianBlur stdDeviation="15" result="effect1_foregroundBlur_245_4852"/>
</filter>
<linearGradient id="paint0_linear_245_4852" x1="7.88235" y1="-20.1918" x2="161.906" y2="32.7198" gradientUnits="userSpaceOnUse">
<stop stop-color="#F59848"/>
<stop offset="0.515115" stop-color="#BD5103"/>
<stop offset="0.859876" stop-color="#573E2A"/>
<stop offset="1" stop-color="#1F1F1F"/>
</linearGradient>
</defs>
</svg>
