<svg id="governance-model-svg" width="441" height="441" viewBox="0 0 441 441" fill="none" xmlns="http://www.w3.org/2000/svg">
<path d="M169.14 292.627V269.164L188.32 259.982V282.629L169.14 292.627Z" fill="url(#paint0_linear_245_4769)"/>
<path d="M131.396 269.164V245.285L151.183 236.854V259.982L131.396 269.164Z" fill="url(#paint1_linear_245_4769)"/>
<path d="M330.734 230.597L349.099 222.438V246.612L330.734 253.516V230.597Z" fill="url(#paint2_linear_245_4769)"/>
<path d="M294.214 233.13L293.191 209.788L312.682 201.317V223.045L294.214 233.13Z" fill="url(#paint3_linear_245_4769)"/>
<path d="M260.953 213.456V190.201L280.748 182.033V204.074L260.953 213.456Z" fill="url(#paint4_linear_245_4769)"/>
<path d="M61 246.988V269.435L83.4479 281.806V260.046L61 246.988Z" fill="url(#paint5_linear_245_4769)"/>
<path d="M197.909 349.142L219.214 362V338.122L197.909 325.471V349.142Z" fill="url(#paint6_linear_245_4769)"/>
<path d="M197.709 189.281V209.38L218.007 221.719V201.932L197.709 189.281Z" fill="url(#paint7_linear_245_4769)"/>
<path d="M320.633 262.835V282.318L340.836 294.153V274.262L320.633 262.835Z" fill="url(#paint8_linear_245_4769)"/>
<path d="M83.4478 260.046L106.159 250.799V271.337L83.4478 281.806V260.046Z" fill="url(#paint9_linear_245_4769)"/>
<path d="M219.214 338.122L238.649 327.789V351.316L219.214 362V338.122Z" fill="url(#paint10_linear_245_4769)"/>
<path d="M340.835 274.262L360.422 264.569V284.259L340.835 294.153V274.262Z" fill="url(#paint11_linear_245_4769)"/>
<path d="M218.007 201.932L238.306 192.854V212.337L218.007 221.719V201.932Z" fill="url(#paint12_linear_245_4769)"/>
<path d="M61 246.988L83.4479 260.046L106.159 250.799L83.5837 237.534L61 246.988Z" fill="url(#paint13_linear_245_4769)"/>
<path d="M197.709 189.282L218.007 201.932L238.305 192.854L219.214 181.154L197.709 189.282Z" fill="url(#paint14_linear_245_4769)"/>
<path d="M320.633 262.834L340.836 274.262L360.423 264.569L341.619 253.516L320.633 262.834Z" fill="url(#paint15_linear_245_4769)"/>
<path d="M238.649 327.789L218.519 315.682L197.909 325.471L219.214 338.122L238.649 327.789Z" fill="url(#paint16_linear_245_4769)"/>
<path d="M111.194 233.13V257.736L131.396 269.164V245.285L111.194 233.13Z" fill="url(#paint17_radial_245_4769)"/>
<path d="M149.345 256.713V280.384L169.14 292.627V269.164L149.345 256.713Z" fill="url(#paint18_radial_245_4769)"/>
<path d="M184.443 279.361L204.646 290.788V314.051L184.443 302.824V279.361Z" fill="url(#paint19_radial_245_4769)"/>
<path d="M260.953 213.456V190.2L240.759 179.588V201.932L260.953 213.456Z" fill="url(#paint20_radial_245_4769)"/>
<path d="M274.219 197.952V220.8L294.213 233.13L293.19 209.787L274.219 197.952Z" fill="url(#paint21_radial_245_4769)"/>
<path d="M311.763 220.192V242.84L330.734 253.516V230.597L311.763 220.192Z" fill="url(#paint22_radial_245_4769)"/>
<path d="M204.646 290.788L224.232 281.806V305.069L204.646 314.052V290.788Z" fill="url(#paint23_linear_245_4769)"/>
<path d="M111.194 233.13L130.373 223.661L151.183 236.854L131.396 245.285L111.194 233.13Z" fill="url(#paint24_linear_245_4769)"/>
<path d="M149.345 256.713L169.14 246.988L188.319 259.982L169.14 269.164L149.345 256.713Z" fill="url(#paint25_linear_245_4769)"/>
<path d="M184.443 279.361L204.646 269.979L224.233 281.806L204.646 290.789L184.443 279.361Z" fill="url(#paint26_linear_245_4769)"/>
<path d="M240.759 179.588L260.41 170.542L280.748 182.033L260.953 190.201L240.759 179.588Z" fill="url(#paint27_linear_245_4769)"/>
<path d="M274.219 197.952L293.19 189.281L312.681 201.317L293.19 209.787L274.219 197.952Z" fill="url(#paint28_linear_245_4769)"/>
<path d="M311.763 220.192L329.783 211.625L349.099 222.438L330.734 230.597L311.763 220.192Z" fill="url(#paint29_linear_245_4769)"/>
<path opacity="0.8" d="M136.495 250.184L149.345 257.936V266.918L136.495 259.981V250.184Z" fill="url(#paint30_linear_245_4769)"/>
<path opacity="0.8" d="M184.644 288.063L173.496 282.222V271.745L184.644 278.546V288.063Z" fill="url(#paint31_linear_245_4769)"/>
<path opacity="0.8" d="M311.827 230.389L297.139 222.502V212.305L311.827 220.056V230.389Z" fill="url(#paint32_linear_245_4769)"/>
<path opacity="0.8" d="M274.219 197.952V207.286L267.179 203.77V193.972L274.219 197.952Z" fill="url(#paint33_linear_245_4769)"/>
<path opacity="0.8" d="M136.495 250.184L144.503 245.797L156.825 253.045L149.345 256.713V257.936L136.495 250.184Z" fill="url(#paint34_linear_245_4769)"/>
<path opacity="0.8" d="M173.496 271.745L182.558 267.581L194.769 274.566L184.444 279.361L184.644 278.546L173.496 271.745Z" fill="url(#paint35_linear_245_4769)"/>
<path opacity="0.8" d="M297.139 212.305L307.208 207.813L321.984 215.333L311.827 220.056L297.139 212.305Z" fill="url(#paint36_linear_245_4769)"/>
<path opacity="0.8" d="M274.219 197.952L267.179 193.972L276.393 189.857L283.513 193.701L274.219 197.952Z" fill="url(#paint37_linear_245_4769)"/>
<path opacity="0.8" d="M147.307 233.13L246.673 188.77L255.04 193.972L151.183 240.395V236.854L146.269 233.738L147.307 233.13Z" fill="url(#paint38_linear_245_4769)"/>
<path opacity="0.8" d="M279.525 207.813L286.869 212.305L186.21 258.551L178.026 253.005L279.525 207.813Z" fill="url(#paint39_linear_245_4769)"/>
<path opacity="0.8" d="M317.069 228.759L325.428 233.13L224.233 283.748V281.806L214.947 276.204L317.069 228.759Z" fill="url(#paint40_linear_245_4769)"/>
<path opacity="0.8" d="M255.04 193.972V202.236L151.183 248.554V240.395L255.04 193.972Z" fill="url(#paint41_linear_245_4769)"/>
<path opacity="0.8" d="M286.869 212.305V222.438L188.935 267.581L188.319 259.981L186.209 258.551L286.869 212.305Z" fill="url(#paint42_linear_245_4769)"/>
<path opacity="0.8" d="M325.428 233.13V242.025L224.233 292.626V281.806L325.428 233.13Z" fill="url(#paint43_linear_245_4769)"/>
<path d="M261.576 136.41L274.65 145.489C274.65 145.489 285.391 152.098 280.98 173.666C276.568 195.235 255.559 225.611 225.295 225.419C218.974 221.927 209.504 215.613 209.504 215.613C209.504 215.613 228.212 224.108 249.126 201.301C270.039 178.501 275.41 147.71 261.576 136.41Z" fill="url(#paint44_linear_245_4769)"/>
<path d="M209.505 215.621C209.505 215.621 188.383 202.811 208.266 166.258C231.577 126.477 256.534 132.902 261.585 136.418C266.635 139.927 277.551 158.219 258.212 189.465C238.873 220.712 215.802 218.962 209.505 215.621Z" fill="url(#paint45_linear_245_4769)"/>
<path d="M208.905 211.074C208.905 211.074 192.914 197.441 210.352 166.33C229.483 135.811 254.976 131.655 262.4 142.364C262.679 143.603 262.671 144.41 262.671 144.41C262.671 144.41 258.819 138.009 250.357 137.889C241.894 137.769 228.62 142.404 215.146 161.416C201.673 180.427 200.394 198.536 208.905 211.074Z" fill="url(#paint46_linear_245_4769)"/>
<path d="M262.4 142.364C262.4 142.364 277.48 157.628 256.246 189.729C235.005 221.839 210.671 214.031 208.905 211.074C207.139 208.117 205.261 203.746 205.261 203.746C205.261 203.746 208.234 214.982 223.825 212.473C239.417 209.963 254.089 193.565 259.731 181.026C265.373 168.488 268.154 157.931 264.27 146.871C263.607 145.337 262.672 144.418 262.672 144.418L262.4 142.364Z" fill="url(#paint47_linear_245_4769)"/>
<path d="M266.675 143.379C266.675 143.379 269.257 149.452 269.065 152.793C273.939 155.925 282.043 161.495 282.043 161.495C282.043 161.495 281.443 156.181 280.46 153.832C278.175 152.361 266.675 143.379 266.675 143.379Z" fill="url(#paint48_linear_245_4769)"/>
<path d="M281.883 167.505L269.121 159.585C269.121 159.585 268.553 164.292 268.29 165.499C272.501 167.912 280.972 173.666 280.972 173.666C280.972 173.666 281.803 168.608 281.883 167.505Z" fill="url(#paint49_linear_245_4769)"/>
<path d="M279.661 178.821C279.661 178.821 278.422 182.665 277.575 184.655C275.042 183.056 264.941 176.407 264.941 176.407C264.941 176.407 267.234 170.494 267.266 169.735C270.447 172.084 279.661 178.821 279.661 178.821Z" fill="url(#paint50_linear_245_4769)"/>
<path d="M275.434 189.385C275.434 189.385 273.428 193.269 272.485 194.812C269.073 192.742 259.898 186.644 259.898 186.644C259.898 186.644 262.568 182.537 263.015 180.755C265.748 182.593 275.434 189.385 275.434 189.385Z" fill="url(#paint51_linear_245_4769)"/>
<path d="M269.688 199.159C269.688 199.159 267.083 202.747 266.276 203.73C262.264 201.165 254.153 195.483 254.153 195.483C254.153 195.483 256.366 192.446 257.693 190.297C260.234 192.214 269.688 199.159 269.688 199.159Z" fill="url(#paint52_linear_245_4769)"/>
<path d="M263.015 207.502C263.015 207.502 259.475 211.082 258.628 211.825C256.79 210.595 247.52 203.307 247.52 203.307C247.52 203.307 250.573 200.326 251.388 199.015C253.33 200.446 263.015 207.502 263.015 207.502Z" fill="url(#paint53_linear_245_4769)"/>
<path d="M255 214.854C255 214.854 250.436 218.314 249.701 218.482C248.087 217.227 239.097 210.395 239.097 210.395C239.097 210.395 243.364 207.614 244.227 206.423C246.465 208.181 255 214.854 255 214.854Z" fill="url(#paint54_linear_245_4769)"/>
<path d="M246.137 220.448C246.137 220.448 241.926 222.518 239.145 223.309C236.5 221.447 228.812 215.565 228.812 215.565C228.812 215.565 233.727 213.935 235.333 212.704C237.794 214.574 246.137 220.448 246.137 220.448Z" fill="url(#paint55_linear_245_4769)"/>
<path d="M235.645 224.268C235.645 224.268 231.385 225.411 227.605 225.379C224.025 223.085 215.227 217.188 215.227 217.188C215.227 217.188 220.861 217.763 223.753 216.892C226.455 218.674 235.645 224.268 235.645 224.268Z" fill="url(#paint56_linear_245_4769)"/>
<path d="M244.763 152.553L243.372 170.318L239.488 174.905L229.491 202.811L225.312 211.466L223.577 202.675L219.118 172.699L242.349 143.842L240.847 156.836L244.763 152.553Z" fill="url(#paint57_linear_245_4769)"/>
<path d="M242.973 156.045L242.453 160.984L223.09 187.004L221.364 173.866L222.802 171.964L223.306 175.824L223.37 175.888L224.257 181.738L235.932 165.659L237.714 154.615L224.472 173.379L224.337 169.503L240.759 147.542L239.057 161.024L242.973 156.045Z" fill="url(#paint58_linear_245_4769)"/>
<path d="M241.982 165.475L241.542 169.599L238.082 174.082L227.973 200.941L224.92 200.885L223.833 192.622L225.487 188.442L227.006 184.599L230.37 180.227L225.919 191.743L226.71 197.752L236.747 171.844L241.982 165.475Z" fill="url(#paint59_linear_245_4769)"/>
<path d="M83.4479 255.147C83.4479 255.147 96.9134 250.791 96.5059 250.184C96.0983 249.577 82.6328 242.225 82.6328 242.225L69.439 246.987L83.4479 255.147Z" fill="url(#paint60_linear_245_4769)"/>
<path d="M207.787 325.288L217.648 320.389L230.642 327.597L220.165 332.767L207.787 325.288Z" fill="url(#paint61_linear_245_4769)"/>
<path d="M330.023 262.539L340.125 257.736L352.232 264.225L341.483 269.228L330.023 262.539Z" fill="url(#paint62_linear_245_4769)"/>
<path opacity="0.3" d="M352.231 264.225L237.475 85.5289H146.269L151.183 159.585L223.833 228.759L341.483 269.228L352.231 264.225Z" fill="url(#paint63_linear_245_4769)"/>
<path d="M82.633 242.225L317.676 80.9419L332.373 152.441L320.633 201.932L235.645 224.268L225.296 225.427L83.4481 255.147L69.4312 246.988L82.633 242.225Z" fill="url(#paint64_linear_245_4769)"/>
<path d="M209.505 325.471L192.811 107.074L258.1 79L293.191 142.364L230.642 327.597L220.165 332.767L209.505 325.471Z" fill="url(#paint65_linear_245_4769)"/>
<circle cx="220.5" cy="220.5" r="161.417" transform="rotate(-30 220.5 220.5)" fill="url(#paint66_linear_245_4769)"/>
<defs>
<linearGradient id="paint0_linear_245_4769" x1="151.69" y1="272.253" x2="184.932" y2="277.23" gradientUnits="userSpaceOnUse">
<stop offset="0.000558523" stop-color="#C6C6C5"/>
<stop offset="0.5994" stop-color="#C4C4C6"/>
<stop offset="1" stop-color="#3B3B3B"/>
</linearGradient>
<linearGradient id="paint1_linear_245_4769" x1="113.241" y1="248.808" x2="147.731" y2="253.971" gradientUnits="userSpaceOnUse">
<stop offset="0.000558523" stop-color="#C6C6C5"/>
<stop offset="0.5994" stop-color="#C4C4C6"/>
<stop offset="1" stop-color="#3B3B3B"/>
</linearGradient>
<linearGradient id="paint2_linear_245_4769" x1="313.583" y1="234.034" x2="346.144" y2="238.908" gradientUnits="userSpaceOnUse">
<stop offset="0.000558523" stop-color="#C6C6C5"/>
<stop offset="0.5994" stop-color="#C4C4C6"/>
<stop offset="1" stop-color="#3B3B3B"/>
</linearGradient>
<linearGradient id="paint3_linear_245_4769" x1="275.499" y1="213.04" x2="309.173" y2="218.081" gradientUnits="userSpaceOnUse">
<stop offset="0.000558523" stop-color="#C6C6C5"/>
<stop offset="0.5994" stop-color="#C4C4C6"/>
<stop offset="1" stop-color="#3B3B3B"/>
</linearGradient>
<linearGradient id="paint4_linear_245_4769" x1="242.925" y1="193.566" x2="277.223" y2="198.701" gradientUnits="userSpaceOnUse">
<stop offset="0.000558523" stop-color="#C6C6C5"/>
<stop offset="0.5994" stop-color="#C4C4C6"/>
<stop offset="1" stop-color="#3B3B3B"/>
</linearGradient>
<linearGradient id="paint5_linear_245_4769" x1="91.3862" y1="251.395" x2="57.108" y2="274.656" gradientUnits="userSpaceOnUse">
<stop stop-color="#BCBCBC"/>
<stop offset="0.1659" stop-color="#626566"/>
<stop offset="0.2086" stop-color="#525455"/>
<stop offset="0.2826" stop-color="#3D3F3F"/>
<stop offset="0.3692" stop-color="#2D2E2E"/>
<stop offset="0.4753" stop-color="#212222"/>
<stop offset="0.6216" stop-color="#1B1B1B"/>
<stop offset="1" stop-color="#191919"/>
</linearGradient>
<linearGradient id="paint6_linear_245_4769" x1="227.909" y1="330.606" x2="193.669" y2="353.841" gradientUnits="userSpaceOnUse">
<stop stop-color="#BCBCBC"/>
<stop offset="0.1659" stop-color="#626566"/>
<stop offset="0.2086" stop-color="#525455"/>
<stop offset="0.2826" stop-color="#3D3F3F"/>
<stop offset="0.3692" stop-color="#2D2E2E"/>
<stop offset="0.4753" stop-color="#212222"/>
<stop offset="0.6216" stop-color="#1B1B1B"/>
<stop offset="1" stop-color="#191919"/>
</linearGradient>
<linearGradient id="paint7_linear_245_4769" x1="224.787" y1="194.011" x2="194.623" y2="214.48" gradientUnits="userSpaceOnUse">
<stop stop-color="#BCBCBC"/>
<stop offset="0.1659" stop-color="#626566"/>
<stop offset="0.2086" stop-color="#525455"/>
<stop offset="0.2826" stop-color="#3D3F3F"/>
<stop offset="0.3692" stop-color="#2D2E2E"/>
<stop offset="0.4753" stop-color="#212222"/>
<stop offset="0.6216" stop-color="#1B1B1B"/>
<stop offset="1" stop-color="#191919"/>
</linearGradient>
<linearGradient id="paint8_linear_245_4769" x1="348.044" y1="266.75" x2="317.507" y2="287.472" gradientUnits="userSpaceOnUse">
<stop stop-color="#BCBCBC"/>
<stop offset="0.1659" stop-color="#626566"/>
<stop offset="0.2086" stop-color="#525455"/>
<stop offset="0.2826" stop-color="#3D3F3F"/>
<stop offset="0.3692" stop-color="#2D2E2E"/>
<stop offset="0.4753" stop-color="#212222"/>
<stop offset="0.6216" stop-color="#1B1B1B"/>
<stop offset="1" stop-color="#191919"/>
</linearGradient>
<linearGradient id="paint9_linear_245_4769" x1="73.44" y1="271.978" x2="112.615" y2="261.572" gradientUnits="userSpaceOnUse">
<stop stop-color="#BCBCBC"/>
<stop offset="0.1659" stop-color="#626566"/>
<stop offset="0.2086" stop-color="#525455"/>
<stop offset="0.2826" stop-color="#3D3F3F"/>
<stop offset="0.3692" stop-color="#2D2E2E"/>
<stop offset="0.4753" stop-color="#212222"/>
<stop offset="0.6216" stop-color="#1B1B1B"/>
<stop offset="1" stop-color="#191919"/>
</linearGradient>
<linearGradient id="paint10_linear_245_4769" x1="209.247" y1="350.12" x2="245.343" y2="340.532" gradientUnits="userSpaceOnUse">
<stop stop-color="#BCBCBC"/>
<stop offset="0.1659" stop-color="#626566"/>
<stop offset="0.2086" stop-color="#525455"/>
<stop offset="0.2826" stop-color="#3D3F3F"/>
<stop offset="0.3692" stop-color="#2D2E2E"/>
<stop offset="0.4753" stop-color="#212222"/>
<stop offset="0.6216" stop-color="#1B1B1B"/>
<stop offset="1" stop-color="#191919"/>
</linearGradient>
<linearGradient id="paint11_linear_245_4769" x1="331.689" y1="284.393" x2="366.424" y2="275.166" gradientUnits="userSpaceOnUse">
<stop stop-color="#BCBCBC"/>
<stop offset="0.1659" stop-color="#626566"/>
<stop offset="0.2086" stop-color="#525455"/>
<stop offset="0.2826" stop-color="#3D3F3F"/>
<stop offset="0.3692" stop-color="#2D2E2E"/>
<stop offset="0.4753" stop-color="#212222"/>
<stop offset="0.6216" stop-color="#1B1B1B"/>
<stop offset="1" stop-color="#191919"/>
</linearGradient>
<linearGradient id="paint12_linear_245_4769" x1="208.854" y1="212.413" x2="244.253" y2="203.01" gradientUnits="userSpaceOnUse">
<stop stop-color="#BCBCBC"/>
<stop offset="0.1659" stop-color="#626566"/>
<stop offset="0.2086" stop-color="#525455"/>
<stop offset="0.2826" stop-color="#3D3F3F"/>
<stop offset="0.3692" stop-color="#2D2E2E"/>
<stop offset="0.4753" stop-color="#212222"/>
<stop offset="0.6216" stop-color="#1B1B1B"/>
<stop offset="1" stop-color="#191919"/>
</linearGradient>
<linearGradient id="paint13_linear_245_4769" x1="115.882" y1="246.586" x2="67.9337" y2="249.851" gradientUnits="userSpaceOnUse">
<stop stop-color="#BCBCBC"/>
<stop offset="0.4475" stop-color="#949699"/>
<stop offset="1" stop-color="#3B3B3B"/>
</linearGradient>
<linearGradient id="paint14_linear_245_4769" x1="247.083" y1="189.603" x2="203.983" y2="192.537" gradientUnits="userSpaceOnUse">
<stop stop-color="#BCBCBC"/>
<stop offset="0.4475" stop-color="#949699"/>
<stop offset="1" stop-color="#3B3B3B"/>
</linearGradient>
<linearGradient id="paint15_linear_245_4769" x1="369.091" y1="261.992" x2="326.729" y2="264.876" gradientUnits="userSpaceOnUse">
<stop stop-color="#BCBCBC"/>
<stop offset="0.4475" stop-color="#949699"/>
<stop offset="1" stop-color="#3B3B3B"/>
</linearGradient>
<linearGradient id="paint16_linear_245_4769" x1="247.501" y1="324.952" x2="204.165" y2="327.903" gradientUnits="userSpaceOnUse">
<stop stop-color="#BCBCBC"/>
<stop offset="0.4475" stop-color="#949699"/>
<stop offset="1" stop-color="#3B3B3B"/>
</linearGradient>
<radialGradient id="paint17_radial_245_4769" cx="0" cy="0" r="1" gradientUnits="userSpaceOnUse" gradientTransform="translate(142.003 240.391) scale(29.3939)">
<stop stop-color="#BCBCBC"/>
<stop offset="0.4475" stop-color="#949699"/>
<stop offset="1" stop-color="#3B3B3B"/>
</radialGradient>
<radialGradient id="paint18_radial_245_4769" cx="0" cy="0" r="1" gradientUnits="userSpaceOnUse" gradientTransform="translate(173.221 264.059) scale(22.4412 22.4412)">
<stop stop-color="#BCBCBC"/>
<stop offset="0.4475" stop-color="#949699"/>
<stop offset="1" stop-color="#3B3B3B"/>
</radialGradient>
<radialGradient id="paint19_radial_245_4769" cx="0" cy="0" r="1" gradientUnits="userSpaceOnUse" gradientTransform="translate(205.255 287.115) scale(21.8928 21.8928)">
<stop stop-color="#BCBCBC"/>
<stop offset="0.4475" stop-color="#949699"/>
<stop offset="1" stop-color="#3B3B3B"/>
</radialGradient>
<radialGradient id="paint20_radial_245_4769" cx="0" cy="0" r="1" gradientUnits="userSpaceOnUse" gradientTransform="translate(271.566 186.413) scale(27.8491 27.849)">
<stop stop-color="#BCBCBC"/>
<stop offset="0.4475" stop-color="#949699"/>
<stop offset="1" stop-color="#3B3B3B"/>
</radialGradient>
<radialGradient id="paint21_radial_245_4769" cx="0" cy="0" r="1" gradientUnits="userSpaceOnUse" gradientTransform="translate(304.717 205.04) scale(28.7482 28.7482)">
<stop stop-color="#BCBCBC"/>
<stop offset="0.4475" stop-color="#949699"/>
<stop offset="1" stop-color="#3B3B3B"/>
</radialGradient>
<radialGradient id="paint22_radial_245_4769" cx="0" cy="0" r="1" gradientUnits="userSpaceOnUse" gradientTransform="translate(340.704 226.907) scale(27.2394 27.2395)">
<stop stop-color="#BCBCBC"/>
<stop offset="0.4475" stop-color="#949699"/>
<stop offset="1" stop-color="#3B3B3B"/>
</radialGradient>
<linearGradient id="paint23_linear_245_4769" x1="186.78" y1="293.789" x2="220.854" y2="298.89" gradientUnits="userSpaceOnUse">
<stop offset="0.000558523" stop-color="#C6C6C5"/>
<stop offset="0.5994" stop-color="#C4C4C6"/>
<stop offset="1" stop-color="#3B3B3B"/>
</linearGradient>
<linearGradient id="paint24_linear_245_4769" x1="79.6419" y1="226.803" x2="143.238" y2="236.323" gradientUnits="userSpaceOnUse">
<stop offset="0.000558523" stop-color="#C6C6C5"/>
<stop offset="0.5994" stop-color="#C4C4C6"/>
<stop offset="1" stop-color="#3B3B3B"/>
</linearGradient>
<linearGradient id="paint25_linear_245_4769" x1="118.65" y1="250.515" x2="180.538" y2="259.78" gradientUnits="userSpaceOnUse">
<stop offset="0.000558523" stop-color="#C6C6C5"/>
<stop offset="0.5994" stop-color="#C4C4C6"/>
<stop offset="1" stop-color="#3B3B3B"/>
</linearGradient>
<linearGradient id="paint26_linear_245_4769" x1="153.259" y1="272.69" x2="216.235" y2="282.117" gradientUnits="userSpaceOnUse">
<stop offset="0.000558523" stop-color="#C6C6C5"/>
<stop offset="0.5994" stop-color="#C4C4C6"/>
<stop offset="1" stop-color="#3B3B3B"/>
</linearGradient>
<linearGradient id="paint27_linear_245_4769" x1="209.442" y1="172.699" x2="272.738" y2="182.175" gradientUnits="userSpaceOnUse">
<stop offset="0.000558523" stop-color="#C6C6C5"/>
<stop offset="0.5994" stop-color="#C4C4C6"/>
<stop offset="1" stop-color="#3B3B3B"/>
</linearGradient>
<linearGradient id="paint28_linear_245_4769" x1="243.858" y1="192.147" x2="304.97" y2="201.295" gradientUnits="userSpaceOnUse">
<stop offset="0.000558523" stop-color="#C6C6C5"/>
<stop offset="0.5994" stop-color="#C4C4C6"/>
<stop offset="1" stop-color="#3B3B3B"/>
</linearGradient>
<linearGradient id="paint29_linear_245_4769" x1="282.499" y1="213.959" x2="341.587" y2="222.805" gradientUnits="userSpaceOnUse">
<stop offset="0.000558523" stop-color="#C6C6C5"/>
<stop offset="0.5994" stop-color="#C4C4C6"/>
<stop offset="1" stop-color="#3B3B3B"/>
</linearGradient>
<linearGradient id="paint30_linear_245_4769" x1="134.247" y1="259.484" x2="147.51" y2="258.056" gradientUnits="userSpaceOnUse">
<stop stop-color="#496EA4"/>
<stop offset="0.3877" stop-color="#B9D0EB"/>
<stop offset="1" stop-color="#5E8AC7"/>
</linearGradient>
<linearGradient id="paint31_linear_245_4769" x1="171.395" y1="280.732" x2="183.111" y2="279.47" gradientUnits="userSpaceOnUse">
<stop stop-color="#496EA4"/>
<stop offset="0.3877" stop-color="#B9D0EB"/>
<stop offset="1" stop-color="#5E8AC7"/>
</linearGradient>
<linearGradient id="paint32_linear_245_4769" x1="294.619" y1="222.41" x2="309.789" y2="220.776" gradientUnits="userSpaceOnUse">
<stop stop-color="#496EA4"/>
<stop offset="0.3877" stop-color="#B9D0EB"/>
<stop offset="1" stop-color="#5E8AC7"/>
</linearGradient>
<linearGradient id="paint33_linear_245_4769" x1="265.614" y1="201.177" x2="273.39" y2="200.339" gradientUnits="userSpaceOnUse">
<stop stop-color="#496EA4"/>
<stop offset="0.3877" stop-color="#B9D0EB"/>
<stop offset="1" stop-color="#5E8AC7"/>
</linearGradient>
<linearGradient id="paint34_linear_245_4769" x1="133.472" y1="253.317" x2="153.78" y2="251.13" gradientUnits="userSpaceOnUse">
<stop stop-color="#496EA4"/>
<stop offset="0.3877" stop-color="#B9D0EB"/>
<stop offset="1" stop-color="#5E8AC7"/>
</linearGradient>
<linearGradient id="paint35_linear_245_4769" x1="170.312" y1="274.89" x2="191.587" y2="272.599" gradientUnits="userSpaceOnUse">
<stop stop-color="#496EA4"/>
<stop offset="0.3877" stop-color="#B9D0EB"/>
<stop offset="1" stop-color="#5E8AC7"/>
</linearGradient>
<linearGradient id="paint36_linear_245_4769" x1="293.387" y1="215.671" x2="318.259" y2="212.992" gradientUnits="userSpaceOnUse">
<stop stop-color="#496EA4"/>
<stop offset="0.3877" stop-color="#B9D0EB"/>
<stop offset="1" stop-color="#5E8AC7"/>
</linearGradient>
<linearGradient id="paint37_linear_245_4769" x1="264.551" y1="195.063" x2="281.152" y2="193.275" gradientUnits="userSpaceOnUse">
<stop stop-color="#496EA4"/>
<stop offset="0.3877" stop-color="#B9D0EB"/>
<stop offset="1" stop-color="#5E8AC7"/>
</linearGradient>
<linearGradient id="paint38_linear_245_4769" x1="137.429" y1="239.055" x2="257.402" y2="191.31" gradientUnits="userSpaceOnUse">
<stop stop-color="#496EA4"/>
<stop offset="0.3877" stop-color="#B9D0EB"/>
<stop offset="1" stop-color="#5E8AC7"/>
</linearGradient>
<linearGradient id="paint39_linear_245_4769" x1="157.761" y1="241.27" x2="272.617" y2="228.9" gradientUnits="userSpaceOnUse">
<stop stop-color="#496EA4"/>
<stop offset="0.3877" stop-color="#B9D0EB"/>
<stop offset="1" stop-color="#5E8AC7"/>
</linearGradient>
<linearGradient id="paint40_linear_245_4769" x1="194.361" y1="264.47" x2="311.144" y2="251.893" gradientUnits="userSpaceOnUse">
<stop stop-color="#496EA4"/>
<stop offset="0.3877" stop-color="#B9D0EB"/>
<stop offset="1" stop-color="#5E8AC7"/>
</linearGradient>
<linearGradient id="paint41_linear_245_4769" x1="139.378" y1="246.626" x2="260.292" y2="198.507" gradientUnits="userSpaceOnUse">
<stop stop-color="#496EA4"/>
<stop offset="0.3877" stop-color="#B9D0EB"/>
<stop offset="1" stop-color="#5E8AC7"/>
</linearGradient>
<linearGradient id="paint42_linear_245_4769" x1="177.029" y1="264.164" x2="292.513" y2="218.206" gradientUnits="userSpaceOnUse">
<stop stop-color="#496EA4"/>
<stop offset="0.3877" stop-color="#B9D0EB"/>
<stop offset="1" stop-color="#5E8AC7"/>
</linearGradient>
<linearGradient id="paint43_linear_245_4769" x1="211.451" y1="288.1" x2="331.694" y2="240.248" gradientUnits="userSpaceOnUse">
<stop stop-color="#496EA4"/>
<stop offset="0.3877" stop-color="#B9D0EB"/>
<stop offset="1" stop-color="#5E8AC7"/>
</linearGradient>
<linearGradient id="paint44_linear_245_4769" x1="205.623" y1="186.106" x2="283.923" y2="175.816" gradientUnits="userSpaceOnUse">
<stop stop-color="#C29B33"/>
<stop offset="1" stop-color="#835923"/>
</linearGradient>
<linearGradient id="paint45_linear_245_4769" x1="218.495" y1="219.471" x2="248.461" y2="137.538" gradientUnits="userSpaceOnUse">
<stop stop-color="#C29B33"/>
<stop offset="1" stop-color="#835923"/>
</linearGradient>
<linearGradient id="paint46_linear_245_4769" x1="224.838" y1="237.198" x2="231.565" y2="175.677" gradientUnits="userSpaceOnUse">
<stop stop-color="#F2F2F3" stop-opacity="0"/>
<stop offset="1" stop-color="#7E5221"/>
</linearGradient>
<linearGradient id="paint47_linear_245_4769" x1="216.717" y1="216.077" x2="267.697" y2="146.118" gradientUnits="userSpaceOnUse">
<stop stop-color="#F2F2F3" stop-opacity="0"/>
<stop offset="0.6246" stop-color="#B38B2E"/>
<stop offset="1" stop-color="#B38B2E" stop-opacity="0"/>
</linearGradient>
<linearGradient id="paint48_linear_245_4769" x1="282.73" y1="153.62" x2="267.403" y2="151.468" gradientUnits="userSpaceOnUse">
<stop stop-color="#C29B33"/>
<stop offset="1" stop-color="#835923"/>
</linearGradient>
<linearGradient id="paint49_linear_245_4769" x1="286.701" y1="169.58" x2="268.028" y2="164.859" gradientUnits="userSpaceOnUse">
<stop stop-color="#C29B33"/>
<stop offset="1" stop-color="#835923"/>
</linearGradient>
<linearGradient id="paint50_linear_245_4769" x1="261.297" y1="175.14" x2="278.85" y2="178.388" gradientUnits="userSpaceOnUse">
<stop offset="0.000558651" stop-color="#7C5120"/>
<stop offset="1" stop-color="#AC832D"/>
</linearGradient>
<linearGradient id="paint51_linear_245_4769" x1="277.714" y1="190.669" x2="258.467" y2="185.098" gradientUnits="userSpaceOnUse">
<stop stop-color="#C29B33"/>
<stop offset="1" stop-color="#835923"/>
</linearGradient>
<linearGradient id="paint52_linear_245_4769" x1="271.449" y1="200.156" x2="242.414" y2="190.548" gradientUnits="userSpaceOnUse">
<stop stop-color="#C29B33"/>
<stop offset="1" stop-color="#835923"/>
</linearGradient>
<linearGradient id="paint53_linear_245_4769" x1="264.335" y1="217.157" x2="254.177" y2="204.002" gradientUnits="userSpaceOnUse">
<stop offset="0.000558651" stop-color="#7C5120"/>
<stop offset="1" stop-color="#AC832D"/>
</linearGradient>
<linearGradient id="paint54_linear_245_4769" x1="255.377" y1="223.418" x2="246.134" y2="211.449" gradientUnits="userSpaceOnUse">
<stop offset="0.000558651" stop-color="#7C5120"/>
<stop offset="1" stop-color="#AC832D"/>
</linearGradient>
<linearGradient id="paint55_linear_245_4769" x1="246.561" y1="229.784" x2="236.478" y2="216.725" gradientUnits="userSpaceOnUse">
<stop offset="0.000558651" stop-color="#7C5120"/>
<stop offset="1" stop-color="#AC832D"/>
</linearGradient>
<linearGradient id="paint56_linear_245_4769" x1="212.609" y1="216.935" x2="235.568" y2="224.333" gradientUnits="userSpaceOnUse">
<stop offset="0.000558651" stop-color="#7C5120"/>
<stop offset="1" stop-color="#AC832D"/>
</linearGradient>
<linearGradient id="paint57_linear_245_4769" x1="237.851" y1="142.813" x2="222.216" y2="210.758" gradientUnits="userSpaceOnUse">
<stop stop-color="#B38B2E"/>
<stop offset="0.5307" stop-color="#BE9C4F" stop-opacity="0.7961"/>
<stop offset="1" stop-color="#B38B2E"/>
</linearGradient>
<linearGradient id="paint58_linear_245_4769" x1="243.103" y1="145.869" x2="222.604" y2="185.361" gradientUnits="userSpaceOnUse">
<stop stop-color="#C29B33"/>
<stop offset="1" stop-color="#835923"/>
</linearGradient>
<linearGradient id="paint59_linear_245_4769" x1="231.349" y1="199.45" x2="233.277" y2="174.201" gradientUnits="userSpaceOnUse">
<stop stop-color="#C29B33"/>
<stop offset="1" stop-color="#835923"/>
</linearGradient>
<linearGradient id="paint60_linear_245_4769" x1="69.9264" y1="253.923" x2="94.7669" y2="244.037" gradientUnits="userSpaceOnUse">
<stop stop-color="#496EA4"/>
<stop offset="0.3877" stop-color="#B9D0EB"/>
<stop offset="1" stop-color="#5E8AC7"/>
</linearGradient>
<linearGradient id="paint61_linear_245_4769" x1="208.088" y1="330.885" x2="229.206" y2="322.481" gradientUnits="userSpaceOnUse">
<stop stop-color="#496EA4"/>
<stop offset="0.3877" stop-color="#B9D0EB"/>
<stop offset="1" stop-color="#5E8AC7"/>
</linearGradient>
<linearGradient id="paint62_linear_245_4769" x1="330.187" y1="267.706" x2="350.92" y2="259.455" gradientUnits="userSpaceOnUse">
<stop stop-color="#496EA4"/>
<stop offset="0.3877" stop-color="#B9D0EB"/>
<stop offset="1" stop-color="#5E8AC7"/>
</linearGradient>
<linearGradient id="paint63_linear_245_4769" x1="148.306" y1="80.5023" x2="336.836" y2="255.973" gradientUnits="userSpaceOnUse">
<stop stop-color="#F2F2F3" stop-opacity="0"/>
<stop offset="1" stop-color="white"/>
</linearGradient>
<linearGradient id="paint64_linear_245_4769" x1="368.829" y1="114.873" x2="69.7117" y2="274.838" gradientUnits="userSpaceOnUse">
<stop stop-color="#F2F2F3" stop-opacity="0"/>
<stop offset="1" stop-color="white" stop-opacity="0.2"/>
</linearGradient>
<linearGradient id="paint65_linear_245_4769" x1="247.189" y1="90.2389" x2="221.072" y2="305.293" gradientUnits="userSpaceOnUse">
<stop stop-color="#F2F2F3" stop-opacity="0"/>
<stop offset="1" stop-color="white" stop-opacity="0.3"/>
</linearGradient>
<linearGradient id="paint66_linear_245_4769" x1="220.5" y1="59.0828" x2="220.5" y2="381.917" gradientUnits="userSpaceOnUse">
<stop stop-color="#F59848" stop-opacity="0.16"/>
<stop offset="1" stop-color="#FEF5ED" stop-opacity="0"/>
</linearGradient>
</defs>
</svg>
