<svg width="24" height="20" viewBox="0 0 24 20" fill="none" xmlns="http://www.w3.org/2000/svg">
<path fill-rule="evenodd" clip-rule="evenodd" d="M0 2.00008C0 1.2637 0.596954 0.666748 1.33333 0.666748H22.6667C23.403 0.666748 24 1.2637 24 2.00008C24 2.73646 23.403 3.33341 22.6667 3.33341H1.33333C0.596954 3.33341 0 2.73646 0 2.00008ZM0 10.0001C0 9.2637 0.596954 8.66675 1.33333 8.66675H22.6667C23.403 8.66675 24 9.2637 24 10.0001C24 10.7365 23.403 11.3334 22.6667 11.3334H1.33333C0.596954 11.3334 0 10.7365 0 10.0001ZM1.33333 16.6667C0.596954 16.6667 0 17.2637 0 18.0001C0 18.7365 0.596954 19.3334 1.33333 19.3334H22.6667C23.403 19.3334 24 18.7365 24 18.0001C24 17.2637 23.403 16.6667 22.6667 16.6667H1.33333Z" fill="url(#paint0_linear_321_218)"/>
<defs>
<linearGradient id="paint0_linear_321_218" x1="-3.81176" y1="-10.5844" x2="45.5907" y2="11.2357" gradientUnits="userSpaceOnUse">
<stop stop-color="#F59848"/>
<stop offset="0.515115" stop-color="#BD5103"/>
<stop offset="0.859876" stop-color="#573E2A"/>
<stop offset="1" stop-color="#1F1F1F"/>
</linearGradient>
</defs>
</svg>
