<svg width="80" height="80" viewBox="0 0 80 80" fill="none" xmlns="http://www.w3.org/2000/svg">
<rect width="80" height="80" rx="40" fill="url(#paint0_linear_139_236)"/>
<path d="M24.915 35.6589L38.491 41.7706C39.691 42.3375 40.208 42.3375 41.508 41.7706L55.084 35.6589C56.084 35.1923 56.117 33.2074 55.084 32.6406L41.508 25.4624C40.442 24.8295 39.691 24.8625 38.491 25.4624L24.915 32.6406C23.882 33.3075 23.849 35.0921 24.915 35.6589ZM24.915 42.061L38.491 48.1728C39.691 48.7395 40.208 48.7395 41.508 48.1728L55.084 42.061C55.755 41.7486 56 40.2775 56 39.4853C55.127 39.923 53.891 40.5469 53.867 40.5519L40 46.954L26.133 40.5519C26.181 40.581 24.906 40.0041 24 39.4853C24 40.2595 24.194 41.6785 24.915 42.061ZM40 53.3562L26.133 46.954C26.181 46.983 24.906 46.4063 24 45.8875C24 46.6616 24.194 48.0807 24.915 48.4632L38.491 54.5749C39.691 55.1417 40.208 55.1417 41.508 54.5749L55.084 48.4632C55.755 48.1507 56 46.6796 56 45.8875C55.127 46.3251 53.891 46.949 53.867 46.954L40 53.3562Z" fill="#F7AD6D"/>
<defs>
<linearGradient id="paint0_linear_139_236" x1="40" y1="0" x2="40" y2="80" gradientUnits="userSpaceOnUse">
<stop stop-color="#F59848" stop-opacity="0.16"/>
<stop offset="1" stop-color="#FEF5ED" stop-opacity="0"/>
</linearGradient>
</defs>
</svg>
