<svg width="48" height="49" viewBox="0 0 48 49" fill="none" xmlns="http://www.w3.org/2000/svg">
<circle cx="24" cy="24.3525" r="24" fill="#CBB18A" fill-opacity="0.2"/>
<path d="M12.6863 20.8797L22.8683 25.7691C23.7683 26.2225 24.156 26.2225 25.131 25.7691L35.313 20.8797C36.063 20.5064 36.0878 18.9185 35.313 18.465L25.131 12.7224C24.3315 12.2161 23.7683 12.2425 22.8682 12.7224L12.6863 18.465C11.9115 18.9986 11.8867 20.4262 12.6863 20.8797ZM12.6863 26.0014L22.8683 30.8907C23.7683 31.3442 24.156 31.3442 25.131 30.8907L35.313 26.0014C35.8162 25.7514 36 24.5746 36 23.9408C35.3453 24.2909 34.4182 24.79 34.4002 24.7941L24 29.9158L13.5997 24.7941C13.6357 24.8173 12.6795 24.3558 12 23.9408C12 24.5601 12.1455 25.6954 12.6863 26.0014ZM24 35.0375L13.5997 29.9158C13.6357 29.939 12.6795 29.4776 12 29.0626C12 29.6819 12.1455 30.8171 12.6863 31.1231L22.8683 36.0124C23.7683 36.4659 24.156 36.4659 25.131 36.0124L35.313 31.1231C35.8162 30.8731 36 29.6962 36 29.0626C35.3453 29.4126 34.4182 29.9117 34.4002 29.9158L24 35.0375Z" fill="url(#paint0_linear_245_3634)"/>
<defs>
<linearGradient id="paint0_linear_245_3634" x1="8.18824" y1="-2.11322" x2="60.9962" y2="16.0279" gradientUnits="userSpaceOnUse">
<stop stop-color="#F59848"/>
<stop offset="0.515115" stop-color="#BD5103"/>
<stop offset="0.859876" stop-color="#573E2A"/>
<stop offset="1" stop-color="#1F1F1F"/>
</linearGradient>
</defs>
</svg>
