<svg width="142" height="30" viewBox="0 0 142 30" fill="none" xmlns="http://www.w3.org/2000/svg">
<path d="M20.5523 4.98117L18.9262 8.23714L14.8174 0L2.71771 24.2543H5.73901L14.8174 6.05478L17.4146 11.2594L9.54006 27.0117H4.36247L4.36456 27.0096H1.34326L0 29.7029H11.2056L22.064 8.00339L20.5523 4.98117Z" fill="white"/>
<path d="M25.1406 14.1596L23.6351 11.1519L20.4329 17.4549L25.2695 27.0118H19.2207L17.5967 23.2056L16.0039 26.3622L17.4303 29.703H29.632L23.4937 17.3969L25.1406 14.1596Z" fill="#F59848"/>
<path d="M142 17.9585H112.875V27.7409H142V17.9585Z" fill="#F59848"/>
<path d="M118.009 20.2483H120.294C121.991 20.2483 123.147 21.2888 123.147 22.8485C123.147 24.4082 121.989 25.4487 120.294 25.4487H118.009V20.2483ZM120.248 24.6337C121.413 24.6337 122.167 23.9283 122.167 22.8506C122.167 21.7728 121.413 21.0675 120.248 21.0675H118.978V24.6337H120.248Z" fill="#1F1F1F"/>
<path d="M128.349 24.2469H125.736L125.22 25.4508H124.22L126.571 20.2483H127.528L129.888 25.4508H128.871L128.349 24.2469ZM128.029 23.4898L127.043 21.2164L126.066 23.4898H128.029Z" fill="#1F1F1F"/>
<path d="M131.231 22.8505C131.231 21.3135 132.427 20.1758 134.047 20.1758C135.669 20.1758 136.862 21.3052 136.862 22.8505C136.862 24.3957 135.667 25.5252 134.047 25.5252C132.425 25.5252 131.231 24.3874 131.231 22.8505ZM135.885 22.8505C135.885 21.7872 135.101 21.0218 134.047 21.0218C132.995 21.0218 132.209 21.7872 132.209 22.8505C132.209 23.9137 132.993 24.6791 134.047 24.6791C135.099 24.677 135.885 23.9137 135.885 22.8505Z" fill="#1F1F1F"/>
<path d="M34.8747 30.0001C34.7704 30.0001 34.6791 29.9609 34.6008 29.8825C34.5225 29.8041 34.4834 29.7126 34.4834 29.608C34.4834 29.5427 34.4899 29.4708 34.503 29.3924L39.3553 16.7086C39.4074 16.5779 39.4792 16.4734 39.5705 16.395C39.6618 16.3166 39.7988 16.2773 39.9814 16.2773H41.3118C41.4814 16.2773 41.6119 16.3166 41.7032 16.395C41.8075 16.4734 41.8858 16.5779 41.938 16.7086L46.7707 29.3924C46.7968 29.4708 46.8098 29.5427 46.8098 29.608C46.8098 29.7126 46.7707 29.8041 46.6924 29.8825C46.6142 29.9609 46.5229 30.0001 46.4185 30.0001H45.4207C45.2641 30.0001 45.1467 29.9609 45.0685 29.8825C45.0033 29.8041 44.9576 29.7322 44.9315 29.6668L43.8554 26.8831H37.4378L36.3617 29.6668C36.3487 29.7322 36.303 29.8041 36.2248 29.8825C36.1465 29.9609 36.0291 30.0001 35.8726 30.0001H34.8747ZM38.0052 25.1971H43.288L40.6466 18.2377L38.0052 25.1971Z" fill="white"/>
<path d="M49.3518 30.0001C49.2084 30.0001 49.0975 29.9609 49.0192 29.8825C48.941 29.791 48.9018 29.6799 48.9018 29.5492V16.7478C48.9018 16.6041 48.941 16.493 49.0192 16.4146C49.0975 16.3231 49.2084 16.2773 49.3518 16.2773H53.7933C55.1368 16.2773 56.2194 16.4799 57.0412 16.8851C57.863 17.2902 58.463 17.8914 58.8412 18.6886C59.2195 19.4728 59.4152 20.4399 59.4282 21.59C59.4413 22.1781 59.4478 22.6944 59.4478 23.1387C59.4478 23.5831 59.4413 24.0928 59.4282 24.6678C59.4021 25.8702 59.2 26.87 58.8217 27.6672C58.4565 28.4514 57.8695 29.0395 57.0608 29.4316C56.2651 29.8106 55.2085 30.0001 53.8911 30.0001H49.3518ZM50.8193 28.3338H53.7933C54.6933 28.3338 55.4107 28.2096 55.9455 27.9613C56.4803 27.713 56.8651 27.3144 57.0999 26.7655C57.3477 26.2165 57.4782 25.4912 57.4912 24.5894C57.5173 24.1973 57.5303 23.8575 57.5303 23.57C57.5303 23.2694 57.5303 22.9754 57.5303 22.6878C57.5303 22.3872 57.5173 22.0474 57.4912 21.6684C57.4651 20.4007 57.1651 19.4663 56.5912 18.8651C56.0173 18.2508 55.052 17.9437 53.6954 17.9437H50.8193V28.3338Z" fill="white"/>
<path d="M62.8415 30.0001C62.698 30.0001 62.5872 29.9609 62.5089 29.8825C62.4306 29.791 62.3915 29.6799 62.3915 29.5492V16.7282C62.3915 16.5975 62.4306 16.493 62.5089 16.4146C62.5872 16.3231 62.698 16.2773 62.8415 16.2773H63.8785C64.0089 16.2773 64.1133 16.3231 64.1916 16.4146C64.2829 16.493 64.3285 16.5975 64.3285 16.7282V29.5492C64.3285 29.6799 64.2829 29.791 64.1916 29.8825C64.1133 29.9609 64.0089 30.0001 63.8785 30.0001H62.8415Z" fill="white"/>
<path d="M68.1915 30.0001C68.0481 30.0001 67.9372 29.9609 67.8589 29.8825C67.7807 29.791 67.7415 29.6799 67.7415 29.5492V16.7478C67.7415 16.6041 67.7807 16.493 67.8589 16.4146C67.9372 16.3231 68.0481 16.2773 68.1915 16.2773H72.9656C74.4395 16.2773 75.607 16.6237 76.4679 17.3164C77.3288 18.009 77.7592 19.035 77.7592 20.3942C77.7592 21.4005 77.5048 22.2239 76.9961 22.8643C76.5005 23.4916 75.8222 23.9294 74.9613 24.1777L77.9744 29.3924C78.0135 29.4708 78.0331 29.5427 78.0331 29.608C78.0331 29.7126 77.9875 29.8041 77.8962 29.8825C77.8179 29.9609 77.7266 30.0001 77.6222 30.0001H76.6831C76.4613 30.0001 76.2983 29.9413 76.1939 29.8237C76.0896 29.706 75.9983 29.5884 75.92 29.4708L73.083 24.4914H69.659V29.5492C69.659 29.6799 69.6133 29.791 69.522 29.8825C69.4437 29.9609 69.3329 30.0001 69.1894 30.0001H68.1915ZM69.659 22.8251H72.8873C73.8656 22.8251 74.5961 22.6225 75.0787 22.2173C75.5613 21.7991 75.8026 21.1849 75.8026 20.3746C75.8026 19.5773 75.5613 18.9696 75.0787 18.5514C74.6091 18.1332 73.8787 17.9241 72.8873 17.9241H69.659V22.8251Z" fill="white"/>
<path d="M81.0125 30.0001C80.869 30.0001 80.7581 29.9609 80.6798 29.8825C80.6016 29.791 80.5624 29.6799 80.5624 29.5492V16.7282C80.5624 16.5975 80.6016 16.493 80.6798 16.4146C80.7581 16.3231 80.869 16.2773 81.0125 16.2773H82.0494C82.1799 16.2773 82.2842 16.3231 82.3625 16.4146C82.4538 16.493 82.4995 16.5975 82.4995 16.7282V29.5492C82.4995 29.6799 82.4538 29.791 82.3625 29.8825C82.2842 29.9609 82.1799 30.0001 82.0494 30.0001H81.0125Z" fill="white"/>
<path d="M85.4624 30.0001C85.319 30.0001 85.2081 29.9544 85.1298 29.8629C85.0516 29.7714 85.0124 29.6603 85.0124 29.5296V28.6866C85.0124 28.4906 85.0516 28.3338 85.1298 28.2162C85.2081 28.0985 85.2668 28.0136 85.3059 27.9613L92.5844 17.9829H85.6385C85.5081 17.9829 85.3972 17.9437 85.3059 17.8653C85.2277 17.7738 85.1885 17.6627 85.1885 17.532V16.7478C85.1885 16.6041 85.2277 16.493 85.3059 16.4146C85.3972 16.3231 85.5081 16.2773 85.6385 16.2773H94.5018C94.6453 16.2773 94.7562 16.3231 94.8344 16.4146C94.9127 16.493 94.9518 16.6041 94.9518 16.7478V17.5908C94.9518 17.7476 94.9258 17.8783 94.8736 17.9829C94.8344 18.0874 94.7757 18.1855 94.6975 18.2769L87.4973 28.2946H94.6975C94.841 28.2946 94.9518 28.3403 95.0301 28.4318C95.1214 28.5102 95.1671 28.6213 95.1671 28.7651V29.5492C95.1671 29.6799 95.1214 29.791 95.0301 29.8825C94.9518 29.9609 94.841 30.0001 94.6975 30.0001H85.4624Z" fill="white"/>
<path d="M98.0943 30.0001C97.9508 30.0001 97.8399 29.9609 97.7617 29.8825C97.6834 29.791 97.6443 29.6799 97.6443 29.5492V16.7478C97.6443 16.6041 97.6834 16.493 97.7617 16.4146C97.8399 16.3231 97.9508 16.2773 98.0943 16.2773H106.175C106.318 16.2773 106.429 16.3231 106.508 16.4146C106.586 16.493 106.625 16.6041 106.625 16.7478V17.4928C106.625 17.6366 106.586 17.7476 106.508 17.8261C106.429 17.9045 106.318 17.9437 106.175 17.9437H99.5226V22.2369H105.744C105.888 22.2369 105.999 22.2827 106.077 22.3742C106.155 22.4526 106.195 22.5637 106.195 22.7074V23.4328C106.195 23.5635 106.155 23.6746 106.077 23.7661C105.999 23.8445 105.888 23.8837 105.744 23.8837H99.5226V28.3338H106.331C106.475 28.3338 106.586 28.373 106.664 28.4514C106.742 28.5298 106.781 28.6409 106.781 28.7847V29.5492C106.781 29.6799 106.742 29.791 106.664 29.8825C106.586 29.9609 106.475 30.0001 106.331 30.0001H98.0943Z" fill="white"/>
</svg>
