<svg width="274" height="385" viewBox="0 0 274 385" fill="none" xmlns="http://www.w3.org/2000/svg">
<path opacity="0.3" d="M50.6208 72.112L109.577 21.8094V117.012L50.6208 166.224V72.112Z" fill="url(#paint0_linear_301_2541)"/>
<path d="M193.404 96.4527L95.6903 64.8984L89.1973 113.58L206.114 153.513L212.883 139.722L177.007 128.727L178.087 124.988L209.631 134.585L211.082 130.888L193.404 96.4527Z" fill="#686867"/>
<path d="M214.503 132.149L193.404 96.453L189.898 117.553L183.945 108.359L182.049 115.922L206.114 153.513L213.148 148.111L212.883 139.722L207.205 144.319L194.219 122.69L196.115 111.06L209.631 134.585L214.503 132.149Z" fill="url(#paint1_linear_301_2541)"/>
<path d="M183.945 108.359L82.5242 76.0842L81.4437 82.7468L182.049 115.922L183.945 108.359Z" fill="url(#paint2_linear_301_2541)"/>
<path d="M174.836 148.238L191.963 155.229L183.945 163.343L167.04 155.791L174.836 148.238Z" fill="#424240"/>
<path d="M193.595 138.281L152.306 125.931L150.95 139.86L191.964 155.229L193.595 138.281Z" fill="#8C8C8C"/>
<path d="M193.594 138.282L198.276 145.315L197.015 159.201L174.835 178.13L182.049 131.789L175.916 122.054L177.367 113.04L188.902 131.429L183.945 163.343L191.963 155.229L193.594 138.282Z" fill="url(#paint3_linear_301_2541)"/>
<path d="M175.916 122.054L76.9422 88.8795L79.8233 81.126L177.367 113.04L175.916 122.054Z" fill="url(#paint4_linear_301_2541)"/>
<path d="M182.048 131.788L85.9556 101.59L76.9416 88.8793L175.915 122.054L182.048 131.788Z" fill="url(#paint5_linear_301_2541)"/>
<path d="M174.835 178.13L78.022 141.343L85.9556 101.59L182.048 131.789L174.835 178.13Z" fill="url(#paint6_linear_301_2541)"/>
<path d="M177.367 113.04L79.8233 81.126L79.7491 81.3378L177.367 113.04Z" fill="url(#paint7_linear_301_2541)"/>
<path d="M198.372 287.293L181.605 279.995V299.739L198.372 306.677V287.293Z" fill="url(#paint8_linear_301_2541)"/>
<path d="M198.372 306.676V287.292L212.343 275.08V295.629L198.372 306.676Z" fill="url(#paint9_linear_301_2541)"/>
<path d="M181.604 279.995L195.755 267.284L212.343 275.08L198.372 287.293L181.604 279.995Z" fill="url(#paint10_linear_301_2541)"/>
<path d="M114.439 230.053L96.5911 223.019L82.5246 234.914L99.8323 243.028L114.439 230.053Z" fill="url(#paint11_linear_301_2541)"/>
<path d="M114.439 230.052L99.8323 243.027V264.127L114.439 251.681V230.052Z" fill="url(#paint12_linear_301_2541)"/>
<path d="M99.8325 264.128L82.5248 257.635V234.915L99.8325 243.028V264.128Z" fill="url(#paint13_linear_301_2541)"/>
<path d="M130.962 353.526L113.379 346.228L100.806 357.721L118.252 365.157L130.962 353.526Z" fill="url(#paint14_linear_301_2541)"/>
<path d="M130.962 353.526L118.252 365.156V384.858L130.962 373.048V353.526Z" fill="url(#paint15_linear_301_2541)"/>
<path d="M118.252 384.858V365.156L100.807 357.72V377.464L118.252 384.858Z" fill="url(#paint16_linear_301_2541)"/>
<path d="M31.9146 308.954L13.3887 301.783L0.000137329 314.229L17.7104 321.389L31.9146 308.954Z" fill="url(#paint17_linear_301_2541)"/>
<path d="M31.9146 328.285V308.954L17.7104 321.389V341.896L31.9146 328.285Z" fill="url(#paint18_linear_301_2541)"/>
<path d="M0.000230789 314.229L17.7104 321.389V341.896L0.000230789 333.697V314.229Z" fill="url(#paint19_linear_301_2541)"/>
<path d="M189.982 272.464L109.577 241.683L103.984 245.909L184.612 277.283L189.982 272.464Z" fill="url(#paint20_linear_301_2541)"/>
<path d="M110.287 349.014L29.881 318.233L24.2883 322.459L104.916 353.833L110.287 349.014Z" fill="url(#paint21_linear_301_2541)"/>
<path opacity="0.1" d="M134.627 265.929L274 58.0561L109.577 56.1389L110.286 256.184" fill="url(#paint22_linear_301_2541)"/>
<path opacity="0.3" d="M123.272 275.663L98.5714 265.929L57.643 18.7482L274 43.4493L123.272 275.663Z" fill="url(#paint23_linear_301_2541)"/>
<path opacity="0.05" d="M98.5716 265.929L110.287 256.184V0L43.5873 47.5909L98.5716 265.929L110.287 256.184L98.5716 265.929Z" fill="url(#paint24_linear_301_2541)"/>
<path d="M156.627 289.73L145.41 284.952L131.566 296.307V312.45L156.627 289.73Z" fill="url(#paint25_linear_301_2541)"/>
<path d="M131.566 334.079L156.627 312.45L146.491 308.298L131.566 321.189V334.079Z" fill="url(#paint26_linear_301_2541)"/>
<path d="M76.4021 289.73L84.9606 282.919L131.566 303.203V312.45L76.4021 289.73Z" fill="url(#paint27_linear_301_2541)"/>
<path d="M76.4021 311.539L84.0179 304.813L131.566 322.131V334.079L76.4021 311.539Z" fill="url(#paint28_linear_301_2541)"/>
<path d="M134.627 265.929L110.286 256.184L98.5715 265.929L123.273 275.663L134.627 265.929Z" fill="url(#paint29_linear_301_2541)"/>
<path d="M151.437 283.511V289.729L131.566 307.302V301.084L151.437 283.511Z" fill="url(#paint30_linear_301_2541)"/>
<path d="M131.566 301.084L82.0371 281.658V288.278L131.566 307.302V301.084Z" fill="url(#paint31_linear_301_2541)"/>
<path d="M131.566 324.885V331.738L82.0371 310.374V304.813L131.566 324.885Z" fill="url(#paint32_linear_301_2541)"/>
<path d="M131.566 331.738V324.885L151.437 307.302V313.615L131.566 331.738Z" fill="url(#paint33_linear_301_2541)"/>
<path d="M156.627 312.45V326.145L131.566 348.866V334.079L156.627 312.45Z" fill="url(#paint34_linear_301_2541)"/>
<path d="M131.566 324.885V312.45L156.627 289.73V302.705L131.566 324.885Z" fill="url(#paint35_linear_301_2541)"/>
<path d="M131.566 301.085V288.289L156.627 265.929V278.915L131.566 301.085Z" fill="url(#paint36_linear_301_2541)"/>
<path d="M131.566 348.866L76.4016 325.966V311.539L131.566 334.079V348.866Z" fill="url(#paint37_linear_301_2541)"/>
<path d="M131.566 324.885L76.4016 302.525V289.73L131.566 312.45V324.885Z" fill="url(#paint38_linear_301_2541)"/>
<path d="M131.566 301.085L76.4016 279.455V265.929L131.566 288.289V301.085Z" fill="url(#paint39_linear_301_2541)"/>
<path d="M101.633 245.009L156.627 265.929L131.566 288.279L76.3913 265.929L101.633 245.009ZM134.627 265.929L110.286 256.184L98.5714 265.929L123.272 275.663L134.627 265.929Z" fill="url(#paint40_linear_301_2541)"/>
<path opacity="0.8" d="M187.239 287.294L194.092 289.73L124.744 350.889L119.162 348.57L187.239 287.294Z" fill="url(#paint41_linear_301_2541)"/>
<path opacity="0.9" d="M194.092 289.73V298.701L130.962 357.16V353.527L124.744 350.889L194.092 289.73Z" fill="url(#paint42_linear_301_2541)"/>
<path d="M104.916 353.834L24.2879 322.46V330.203L100.806 361.302V357.722L104.916 353.834Z" fill="url(#paint43_linear_301_2541)"/>
<path opacity="0.9" d="M93.8257 247.085L86.3158 245.009L18.7691 303.87L26.0248 306.677L93.8257 247.085Z" fill="url(#paint44_linear_301_2541)"/>
<path d="M93.8257 247.086V251.481L76.3909 265.929V270.886L31.9141 311.539V308.955L26.0248 306.677L93.8257 247.086Z" fill="url(#paint45_linear_301_2541)"/>
<path opacity="0.3" d="M109.577 21.8094L101.283 18.7483L43.5875 69.411L50.6208 72.112L109.577 21.8094Z" fill="url(#paint46_linear_301_2541)"/>
<path opacity="0.3" d="M50.6211 166.225L43.5879 163.343V69.4115L50.6211 72.1125V166.225Z" fill="url(#paint47_linear_301_2541)"/>
<path opacity="0.1" d="M187.186 83.2018L98.7515 52.3678L65.7567 79.9606L158.523 110.519L159.328 108.623L187.186 83.2018Z" fill="url(#paint48_linear_301_2541)"/>
<path opacity="0.1" d="M65.7571 79.9612L67.3883 150.537L158.524 185.968V110.52L65.7571 79.9612Z" fill="url(#paint49_linear_301_2541)"/>
<path opacity="0.6" d="M229.375 58.0564L166.637 110.52L165.557 208.794L229.375 154.329V58.0564Z" fill="url(#paint50_linear_301_2541)"/>
<path d="M229.375 58.056L219.016 54.4441L157.178 110.075V205.85L165.557 208.794L166.637 110.519L229.375 58.056Z" fill="url(#paint51_linear_301_2541)"/>
<path opacity="0.3" d="M187.186 83.2024V157.57L158.523 185.968L157.178 110.075L187.186 83.2024Z" fill="url(#paint52_linear_301_2541)"/>
<defs>
<linearGradient id="paint0_linear_301_2541" x1="104.552" y1="33.1047" x2="41.269" y2="192.123" gradientUnits="userSpaceOnUse">
<stop stop-color="#496EA4"/>
<stop offset="1" stop-color="#5E8AC7"/>
</linearGradient>
<linearGradient id="paint1_linear_301_2541" x1="197.775" y1="130.057" x2="209.674" y2="101.931" gradientUnits="userSpaceOnUse">
<stop stop-color="#BCBCBC"/>
<stop offset="0.4475" stop-color="#949699"/>
<stop offset="1" stop-color="#3B3B3B"/>
</linearGradient>
<linearGradient id="paint2_linear_301_2541" x1="125.709" y1="109.74" x2="147.344" y2="64.5769" gradientUnits="userSpaceOnUse">
<stop stop-color="#BCBCBC"/>
<stop offset="0.1659" stop-color="#626566"/>
<stop offset="0.2086" stop-color="#525455"/>
<stop offset="0.2826" stop-color="#3D3F3F"/>
<stop offset="0.3692" stop-color="#2D2E2E"/>
<stop offset="0.4753" stop-color="#212222"/>
<stop offset="0.6216" stop-color="#1B1B1B"/>
<stop offset="1" stop-color="#191919"/>
</linearGradient>
<linearGradient id="paint3_linear_301_2541" x1="174.203" y1="167.809" x2="196.92" y2="112.369" gradientUnits="userSpaceOnUse">
<stop stop-color="#BCBCBC"/>
<stop offset="0.4475" stop-color="#949699"/>
<stop offset="1" stop-color="#3B3B3B"/>
</linearGradient>
<linearGradient id="paint4_linear_301_2541" x1="177.363" y1="101.592" x2="76.9395" y2="101.592" gradientUnits="userSpaceOnUse">
<stop stop-color="#BCBCBC"/>
<stop offset="0.4475" stop-color="#949699"/>
<stop offset="1" stop-color="#3B3B3B"/>
</linearGradient>
<linearGradient id="paint5_linear_301_2541" x1="122.903" y1="131.209" x2="129.394" y2="110.656" gradientUnits="userSpaceOnUse">
<stop stop-color="#BCBCBC"/>
<stop offset="0.4475" stop-color="#949699"/>
<stop offset="1" stop-color="#3B3B3B"/>
</linearGradient>
<linearGradient id="paint6_linear_301_2541" x1="107.796" y1="176.405" x2="141.691" y2="121.595" gradientUnits="userSpaceOnUse">
<stop stop-color="#BCBCBC"/>
<stop offset="0.4475" stop-color="#949699"/>
<stop offset="1" stop-color="#3B3B3B"/>
</linearGradient>
<linearGradient id="paint7_linear_301_2541" x1="87.8667" y1="83.0447" x2="180.696" y2="115.31" gradientUnits="userSpaceOnUse">
<stop stop-color="#BCBCBC"/>
<stop offset="0.4475" stop-color="#949699"/>
<stop offset="1" stop-color="#3B3B3B"/>
</linearGradient>
<linearGradient id="paint8_linear_301_2541" x1="198.413" y1="303.1" x2="184.62" y2="287.415" gradientUnits="userSpaceOnUse">
<stop stop-color="#BCBCBC"/>
<stop offset="0.4475" stop-color="#949699"/>
<stop offset="1" stop-color="#3B3B3B"/>
</linearGradient>
<linearGradient id="paint9_linear_301_2541" x1="200.377" y1="295.687" x2="213.764" y2="284.126" gradientUnits="userSpaceOnUse">
<stop stop-color="#BCBCBC"/>
<stop offset="0.4475" stop-color="#949699"/>
<stop offset="1" stop-color="#3B3B3B"/>
</linearGradient>
<linearGradient id="paint10_linear_301_2541" x1="196.816" y1="311.434" x2="197.087" y2="251.667" gradientUnits="userSpaceOnUse">
<stop stop-color="#BCBCBC"/>
<stop offset="0.1659" stop-color="#626566"/>
<stop offset="0.2086" stop-color="#525455"/>
<stop offset="0.2826" stop-color="#3D3F3F"/>
<stop offset="0.3692" stop-color="#2D2E2E"/>
<stop offset="0.4753" stop-color="#212222"/>
<stop offset="0.6216" stop-color="#1B1B1B"/>
<stop offset="1" stop-color="#191919"/>
</linearGradient>
<linearGradient id="paint11_linear_301_2541" x1="98.3279" y1="267.17" x2="98.5983" y2="207.411" gradientUnits="userSpaceOnUse">
<stop stop-color="#BCBCBC"/>
<stop offset="0.1659" stop-color="#626566"/>
<stop offset="0.2086" stop-color="#525455"/>
<stop offset="0.2826" stop-color="#3D3F3F"/>
<stop offset="0.3692" stop-color="#2D2E2E"/>
<stop offset="0.4753" stop-color="#212222"/>
<stop offset="0.6216" stop-color="#1B1B1B"/>
<stop offset="1" stop-color="#191919"/>
</linearGradient>
<linearGradient id="paint12_linear_301_2541" x1="101.491" y1="265.298" x2="110.686" y2="236.09" gradientUnits="userSpaceOnUse">
<stop stop-color="#BCBCBC"/>
<stop offset="0.4475" stop-color="#949699"/>
<stop offset="1" stop-color="#3B3B3B"/>
</linearGradient>
<linearGradient id="paint13_linear_301_2541" x1="97.1689" y1="262.021" x2="85.8103" y2="239.845" gradientUnits="userSpaceOnUse">
<stop stop-color="#BCBCBC"/>
<stop offset="0.4475" stop-color="#949699"/>
<stop offset="1" stop-color="#3B3B3B"/>
</linearGradient>
<linearGradient id="paint14_linear_301_2541" x1="119.913" y1="340.367" x2="114.865" y2="359.478" gradientUnits="userSpaceOnUse">
<stop stop-color="#BCBCBC"/>
<stop offset="0.4475" stop-color="#949699"/>
<stop offset="1" stop-color="#3B3B3B"/>
</linearGradient>
<linearGradient id="paint15_linear_301_2541" x1="138.512" y1="353.483" x2="115.074" y2="379.806" gradientUnits="userSpaceOnUse">
<stop stop-color="#BCBCBC"/>
<stop offset="0.1659" stop-color="#626566"/>
<stop offset="0.2086" stop-color="#525455"/>
<stop offset="0.2826" stop-color="#3D3F3F"/>
<stop offset="0.3692" stop-color="#2D2E2E"/>
<stop offset="0.4753" stop-color="#212222"/>
<stop offset="0.6216" stop-color="#1B1B1B"/>
<stop offset="1" stop-color="#191919"/>
</linearGradient>
<linearGradient id="paint16_linear_301_2541" x1="99.566" y1="374.81" x2="112.953" y2="370.077" gradientUnits="userSpaceOnUse">
<stop stop-color="#BCBCBC"/>
<stop offset="0.4475" stop-color="#949699"/>
<stop offset="1" stop-color="#3B3B3B"/>
</linearGradient>
<linearGradient id="paint17_linear_301_2541" x1="37.732" y1="306.601" x2="7.26239" y2="313.452" gradientUnits="userSpaceOnUse">
<stop stop-color="#BCBCBC"/>
<stop offset="0.4475" stop-color="#949699"/>
<stop offset="1" stop-color="#3B3B3B"/>
</linearGradient>
<linearGradient id="paint18_linear_301_2541" x1="39.0411" y1="322.227" x2="19.1501" y2="326.699" gradientUnits="userSpaceOnUse">
<stop stop-color="#BCBCBC"/>
<stop offset="0.4475" stop-color="#949699"/>
<stop offset="1" stop-color="#3B3B3B"/>
</linearGradient>
<linearGradient id="paint19_linear_301_2541" x1="22.4546" y1="325.005" x2="3.60021" y2="329.245" gradientUnits="userSpaceOnUse">
<stop stop-color="#BCBCBC"/>
<stop offset="0.4475" stop-color="#949699"/>
<stop offset="1" stop-color="#3B3B3B"/>
</linearGradient>
<linearGradient id="paint20_linear_301_2541" x1="149.303" y1="254.007" x2="144.798" y2="264.064" gradientUnits="userSpaceOnUse">
<stop stop-color="#496EA4"/>
<stop offset="0.3877" stop-color="#B9D0EB"/>
<stop offset="1" stop-color="#5E8AC7"/>
</linearGradient>
<linearGradient id="paint21_linear_301_2541" x1="69.6079" y1="330.556" x2="65.1036" y2="340.613" gradientUnits="userSpaceOnUse">
<stop stop-color="#496EA4"/>
<stop offset="0.3877" stop-color="#B9D0EB"/>
<stop offset="1" stop-color="#5E8AC7"/>
</linearGradient>
<linearGradient id="paint22_linear_301_2541" x1="207.17" y1="22.7489" x2="104.943" y2="251" gradientUnits="userSpaceOnUse">
<stop stop-color="#91A9CF" stop-opacity="0"/>
<stop offset="1" stop-color="#496EA4"/>
</linearGradient>
<linearGradient id="paint23_linear_301_2541" x1="181.512" y1="-3.93172" x2="68.141" y2="249.205" gradientUnits="userSpaceOnUse">
<stop stop-color="#91A9CF" stop-opacity="0"/>
<stop offset="1" stop-color="#496EA4"/>
</linearGradient>
<linearGradient id="paint24_linear_301_2541" x1="141.174" y1="8.4633" x2="39.0511" y2="236.484" gradientUnits="userSpaceOnUse">
<stop stop-color="#91A9CF" stop-opacity="0"/>
<stop offset="1" stop-color="#496EA4"/>
</linearGradient>
<linearGradient id="paint25_linear_301_2541" x1="124.066" y1="310.735" x2="155.978" y2="283.691" gradientUnits="userSpaceOnUse">
<stop stop-color="#BCBCBC"/>
<stop offset="0.1659" stop-color="#626566"/>
<stop offset="0.2086" stop-color="#525455"/>
<stop offset="0.2826" stop-color="#3D3F3F"/>
<stop offset="0.3692" stop-color="#2D2E2E"/>
<stop offset="0.4753" stop-color="#212222"/>
<stop offset="0.6216" stop-color="#1B1B1B"/>
<stop offset="1" stop-color="#191919"/>
</linearGradient>
<linearGradient id="paint26_linear_301_2541" x1="124.879" y1="333.181" x2="156.13" y2="306.696" gradientUnits="userSpaceOnUse">
<stop stop-color="#BCBCBC"/>
<stop offset="0.1659" stop-color="#626566"/>
<stop offset="0.2086" stop-color="#525455"/>
<stop offset="0.2826" stop-color="#3D3F3F"/>
<stop offset="0.3692" stop-color="#2D2E2E"/>
<stop offset="0.4753" stop-color="#212222"/>
<stop offset="0.6216" stop-color="#1B1B1B"/>
<stop offset="1" stop-color="#191919"/>
</linearGradient>
<linearGradient id="paint27_linear_301_2541" x1="90.0536" y1="312.892" x2="121.56" y2="286.192" gradientUnits="userSpaceOnUse">
<stop stop-color="#BCBCBC"/>
<stop offset="0.1659" stop-color="#626566"/>
<stop offset="0.2086" stop-color="#525455"/>
<stop offset="0.2826" stop-color="#3D3F3F"/>
<stop offset="0.3692" stop-color="#2D2E2E"/>
<stop offset="0.4753" stop-color="#212222"/>
<stop offset="0.6216" stop-color="#1B1B1B"/>
<stop offset="1" stop-color="#191919"/>
</linearGradient>
<linearGradient id="paint28_linear_301_2541" x1="89.7469" y1="334.74" x2="123.013" y2="306.548" gradientUnits="userSpaceOnUse">
<stop stop-color="#BCBCBC"/>
<stop offset="0.1659" stop-color="#626566"/>
<stop offset="0.2086" stop-color="#525455"/>
<stop offset="0.2826" stop-color="#3D3F3F"/>
<stop offset="0.3692" stop-color="#2D2E2E"/>
<stop offset="0.4753" stop-color="#212222"/>
<stop offset="0.6216" stop-color="#1B1B1B"/>
<stop offset="1" stop-color="#191919"/>
</linearGradient>
<linearGradient id="paint29_linear_301_2541" x1="96.6861" y1="281.628" x2="123.731" y2="260.499" gradientUnits="userSpaceOnUse">
<stop stop-color="#BED6EF"/>
<stop offset="1" stop-color="#496EA4"/>
</linearGradient>
<linearGradient id="paint30_linear_301_2541" x1="120.188" y1="312.058" x2="149.035" y2="289.521" gradientUnits="userSpaceOnUse">
<stop stop-color="#BED6EF"/>
<stop offset="1" stop-color="#496EA4"/>
</linearGradient>
<linearGradient id="paint31_linear_301_2541" x1="131.568" y1="294.484" x2="82.034" y2="294.484" gradientUnits="userSpaceOnUse">
<stop stop-color="#496EA4"/>
<stop offset="0.3877" stop-color="#B9D0EB"/>
<stop offset="1" stop-color="#5E8AC7"/>
</linearGradient>
<linearGradient id="paint32_linear_301_2541" x1="131.568" y1="318.275" x2="82.034" y2="318.275" gradientUnits="userSpaceOnUse">
<stop stop-color="#496EA4"/>
<stop offset="0.3877" stop-color="#B9D0EB"/>
<stop offset="1" stop-color="#5E8AC7"/>
</linearGradient>
<linearGradient id="paint33_linear_301_2541" x1="119.915" y1="336.386" x2="149.132" y2="313.56" gradientUnits="userSpaceOnUse">
<stop stop-color="#BED6EF"/>
<stop offset="1" stop-color="#496EA4"/>
</linearGradient>
<linearGradient id="paint34_linear_301_2541" x1="126.771" y1="336.781" x2="150.073" y2="328.543" gradientUnits="userSpaceOnUse">
<stop stop-color="#BCBCBC"/>
<stop offset="0.4475" stop-color="#949699"/>
<stop offset="1" stop-color="#3B3B3B"/>
</linearGradient>
<linearGradient id="paint35_linear_301_2541" x1="126.975" y1="313.361" x2="150.003" y2="305.22" gradientUnits="userSpaceOnUse">
<stop stop-color="#BCBCBC"/>
<stop offset="0.4475" stop-color="#949699"/>
<stop offset="1" stop-color="#3B3B3B"/>
</linearGradient>
<linearGradient id="paint36_linear_301_2541" x1="126.975" y1="289.563" x2="150.003" y2="281.421" gradientUnits="userSpaceOnUse">
<stop stop-color="#BCBCBC"/>
<stop offset="0.4475" stop-color="#949699"/>
<stop offset="1" stop-color="#3B3B3B"/>
</linearGradient>
<linearGradient id="paint37_linear_301_2541" x1="74.9232" y1="328.025" x2="139.829" y2="332.893" gradientUnits="userSpaceOnUse">
<stop stop-color="#BCBCBC"/>
<stop offset="0.4475" stop-color="#949699"/>
<stop offset="1" stop-color="#3B3B3B"/>
</linearGradient>
<linearGradient id="paint38_linear_301_2541" x1="75.0046" y1="305.134" x2="139.729" y2="309.988" gradientUnits="userSpaceOnUse">
<stop stop-color="#BCBCBC"/>
<stop offset="0.4475" stop-color="#949699"/>
<stop offset="1" stop-color="#3B3B3B"/>
</linearGradient>
<linearGradient id="paint39_linear_301_2541" x1="75.0046" y1="281.335" x2="139.729" y2="286.19" gradientUnits="userSpaceOnUse">
<stop stop-color="#BCBCBC"/>
<stop offset="0.4475" stop-color="#949699"/>
<stop offset="1" stop-color="#3B3B3B"/>
</linearGradient>
<linearGradient id="paint40_linear_301_2541" x1="76.2361" y1="263.622" x2="166.074" y2="270.36" gradientUnits="userSpaceOnUse">
<stop stop-color="#BCBCBC"/>
<stop offset="0.4475" stop-color="#949699"/>
<stop offset="1" stop-color="#3B3B3B"/>
</linearGradient>
<linearGradient id="paint41_linear_301_2541" x1="214.641" y1="305.906" x2="133.485" y2="324.154" gradientUnits="userSpaceOnUse">
<stop stop-color="#496EA4"/>
<stop offset="0.3877" stop-color="#B9D0EB"/>
<stop offset="1" stop-color="#5E8AC7"/>
</linearGradient>
<linearGradient id="paint42_linear_301_2541" x1="185.575" y1="296.335" x2="128.242" y2="358.716" gradientUnits="userSpaceOnUse">
<stop stop-color="#496EA4"/>
<stop offset="0.3877" stop-color="#B9D0EB"/>
<stop offset="1" stop-color="#5E8AC7"/>
</linearGradient>
<linearGradient id="paint43_linear_301_2541" x1="34.9653" y1="325.66" x2="109.427" y2="366.767" gradientUnits="userSpaceOnUse">
<stop stop-color="#496EA4" stop-opacity="0.7"/>
<stop offset="0.3877" stop-color="#B9D0EB"/>
<stop offset="1" stop-color="#5E8AC7"/>
</linearGradient>
<linearGradient id="paint44_linear_301_2541" x1="43.8041" y1="268.582" x2="77.0284" y2="286.923" gradientUnits="userSpaceOnUse">
<stop stop-color="#496EA4" stop-opacity="0.7"/>
<stop offset="0.3877" stop-color="#B9D0EB"/>
<stop offset="1" stop-color="#5E8AC7"/>
</linearGradient>
<linearGradient id="paint45_linear_301_2541" x1="49.8432" y1="272.126" x2="78.2184" y2="287.791" gradientUnits="userSpaceOnUse">
<stop stop-color="#496EA4" stop-opacity="0.7"/>
<stop offset="0.3877" stop-color="#B9D0EB"/>
<stop offset="1" stop-color="#5E8AC7"/>
</linearGradient>
<linearGradient id="paint46_linear_301_2541" x1="120.058" y1="-13.4161" x2="-17.4598" y2="45.0026" gradientUnits="userSpaceOnUse">
<stop stop-color="#F59848"/>
<stop offset="0.515115" stop-color="#BD5103"/>
<stop offset="0.859876" stop-color="#573E2A"/>
<stop offset="1" stop-color="#1F1F1F"/>
</linearGradient>
<linearGradient id="paint47_linear_301_2541" x1="51.7381" y1="11.0584" x2="34.4472" y2="11.49" gradientUnits="userSpaceOnUse">
<stop stop-color="#F59848"/>
<stop offset="0.515115" stop-color="#BD5103"/>
<stop offset="0.859876" stop-color="#573E2A"/>
<stop offset="1" stop-color="#1F1F1F"/>
</linearGradient>
<linearGradient id="paint48_linear_301_2541" x1="206.472" y1="17.3176" x2="9.24511" y2="158.797" gradientUnits="userSpaceOnUse">
<stop stop-color="#F59848"/>
<stop offset="0.515115" stop-color="#BD5103"/>
<stop offset="0.859876" stop-color="#573E2A"/>
<stop offset="1" stop-color="#1F1F1F"/>
</linearGradient>
<linearGradient id="paint49_linear_301_2541" x1="173.257" y1="16.0665" x2="-36.0343" y2="78.9843" gradientUnits="userSpaceOnUse">
<stop stop-color="#F59848"/>
<stop offset="0.515115" stop-color="#BD5103"/>
<stop offset="0.859876" stop-color="#573E2A"/>
<stop offset="1" stop-color="#1F1F1F"/>
</linearGradient>
<linearGradient id="paint50_linear_301_2541" x1="157.665" y1="220.789" x2="225.816" y2="71.5061" gradientUnits="userSpaceOnUse">
<stop stop-color="#BED6EF"/>
<stop offset="1" stop-color="#496EA4" stop-opacity="0.3"/>
</linearGradient>
<linearGradient id="paint51_linear_301_2541" x1="137.194" y1="212.388" x2="205.675" y2="62.3836" gradientUnits="userSpaceOnUse">
<stop stop-color="#BED6EF"/>
<stop offset="1" stop-color="#496EA4" stop-opacity="0.3"/>
</linearGradient>
<linearGradient id="paint52_linear_301_2541" x1="191.952" y1="21.2613" x2="118.868" y2="28.5924" gradientUnits="userSpaceOnUse">
<stop stop-color="#F59848"/>
<stop offset="0.515115" stop-color="#BD5103"/>
<stop offset="0.859876" stop-color="#573E2A"/>
<stop offset="1" stop-color="#1F1F1F"/>
</linearGradient>
</defs>
</svg>
