<svg width="274" height="385" viewBox="0 0 274 385" fill="none" xmlns="http://www.w3.org/2000/svg">
<path opacity="0.3" d="M223.379 72.112L164.423 21.8094V117.012L223.379 166.224V72.112Z" fill="url(#paint0_linear_245_4033)"/>
<path d="M80.5963 96.4527L178.31 64.8984L184.803 113.58L67.8856 153.513L61.1172 139.722L96.9931 128.727L95.9127 124.988L64.369 134.585L62.9179 130.888L80.5963 96.4527Z" fill="#686867"/>
<path d="M59.4966 132.149L80.5963 96.453L84.1023 117.553L90.0552 108.359L91.9512 115.922L67.8856 153.513L60.8524 148.111L61.1172 139.722L66.7946 144.319L79.7807 122.69L77.8847 111.06L64.369 134.585L59.4966 132.149Z" fill="url(#paint1_linear_245_4033)"/>
<path d="M90.0552 108.359L191.476 76.0842L192.556 82.7468L91.9512 115.922L90.0552 108.359Z" fill="url(#paint2_linear_245_4033)"/>
<path d="M99.1643 148.238L82.0366 155.229L90.055 163.343L106.96 155.791L99.1643 148.238Z" fill="#424240"/>
<path d="M80.4053 138.281L121.694 125.931L123.05 139.86L82.0365 155.229L80.4053 138.281Z" fill="#8C8C8C"/>
<path d="M80.4059 138.282L75.7241 145.315L76.9846 159.201L99.1647 178.13L91.9514 131.789L98.0843 122.054L96.6332 113.04L85.0982 131.429L90.0554 163.343L82.0371 155.229L80.4059 138.282Z" fill="url(#paint3_linear_245_4033)"/>
<path d="M98.084 122.054L197.058 88.8795L194.177 81.126L96.6328 113.04L98.084 122.054Z" fill="url(#paint4_linear_245_4033)"/>
<path d="M91.9517 131.788L188.044 101.59L197.058 88.8793L98.0846 122.054L91.9517 131.788Z" fill="url(#paint5_linear_245_4033)"/>
<path d="M99.165 178.13L195.978 141.343L188.044 101.59L91.9517 131.789L99.165 178.13Z" fill="url(#paint6_linear_245_4033)"/>
<path d="M96.6328 113.04L194.177 81.126L194.251 81.3378L96.6328 113.04Z" fill="url(#paint7_linear_245_4033)"/>
<path d="M75.6279 287.293L92.3954 279.995V299.739L75.6279 306.677V287.293Z" fill="url(#paint8_linear_245_4033)"/>
<path d="M75.6284 306.676V287.292L61.6572 275.08V295.629L75.6284 306.676Z" fill="url(#paint9_linear_245_4033)"/>
<path d="M92.3959 279.995L78.2447 267.284L61.6572 275.08L75.6284 287.293L92.3959 279.995Z" fill="url(#paint10_linear_245_4033)"/>
<path d="M159.561 230.053L177.409 223.019L191.475 234.914L174.168 243.028L159.561 230.053Z" fill="url(#paint11_linear_245_4033)"/>
<path d="M159.561 230.052L174.168 243.027V264.127L159.561 251.681V230.052Z" fill="url(#paint12_linear_245_4033)"/>
<path d="M174.167 264.128L191.475 257.635V234.915L174.167 243.028V264.128Z" fill="url(#paint13_linear_245_4033)"/>
<path d="M143.038 353.526L160.621 346.228L173.194 357.721L155.748 365.157L143.038 353.526Z" fill="url(#paint14_linear_245_4033)"/>
<path d="M143.038 353.526L155.748 365.156V384.858L143.038 373.048V353.526Z" fill="url(#paint15_linear_245_4033)"/>
<path d="M155.748 384.858V365.156L173.193 357.72V377.464L155.748 384.858Z" fill="url(#paint16_linear_245_4033)"/>
<path d="M242.085 308.954L260.611 301.783L274 314.229L256.29 321.389L242.085 308.954Z" fill="url(#paint17_linear_245_4033)"/>
<path d="M242.085 328.285V308.954L256.29 321.389V341.896L242.085 328.285Z" fill="url(#paint18_linear_245_4033)"/>
<path d="M274 314.229L256.29 321.389V341.896L274 333.697V314.229Z" fill="url(#paint19_linear_245_4033)"/>
<path d="M84.0176 272.464L164.423 241.683L170.016 245.909L89.3878 277.283L84.0176 272.464Z" fill="url(#paint20_linear_245_4033)"/>
<path d="M163.713 349.014L244.119 318.233L249.712 322.459L169.084 353.833L163.713 349.014Z" fill="url(#paint21_linear_245_4033)"/>
<path opacity="0.1" d="M139.373 265.929L0 58.0561L164.423 56.1389L163.714 256.184" fill="url(#paint22_linear_245_4033)"/>
<path opacity="0.3" d="M150.728 275.663L175.429 265.929L216.357 18.7482L0 43.4493L150.728 275.663Z" fill="url(#paint23_linear_245_4033)"/>
<path opacity="0.05" d="M175.428 265.929L163.713 256.184V0L230.413 47.5909L175.428 265.929L163.713 256.184L175.428 265.929Z" fill="url(#paint24_linear_245_4033)"/>
<path d="M117.373 289.73L128.59 284.952L142.434 296.307V312.45L117.373 289.73Z" fill="url(#paint25_linear_245_4033)"/>
<path d="M142.434 334.079L117.373 312.45L127.509 308.298L142.434 321.189V334.079Z" fill="url(#paint26_linear_245_4033)"/>
<path d="M197.598 289.73L189.039 282.919L142.434 303.203V312.45L197.598 289.73Z" fill="url(#paint27_linear_245_4033)"/>
<path d="M197.598 311.539L189.982 304.813L142.434 322.131V334.079L197.598 311.539Z" fill="url(#paint28_linear_245_4033)"/>
<path d="M139.373 265.929L163.714 256.184L175.429 265.929L150.727 275.663L139.373 265.929Z" fill="url(#paint29_linear_245_4033)"/>
<path d="M122.563 283.511V289.729L142.434 307.302V301.084L122.563 283.511Z" fill="url(#paint30_linear_245_4033)"/>
<path d="M142.434 301.084L191.963 281.658V288.278L142.434 307.302V301.084Z" fill="url(#paint31_linear_245_4033)"/>
<path d="M142.434 324.885V331.738L191.963 310.374V304.813L142.434 324.885Z" fill="url(#paint32_linear_245_4033)"/>
<path d="M142.434 331.738V324.885L122.563 307.302V313.615L142.434 331.738Z" fill="url(#paint33_linear_245_4033)"/>
<path d="M117.373 312.45V326.145L142.434 348.866V334.079L117.373 312.45Z" fill="url(#paint34_linear_245_4033)"/>
<path d="M142.434 324.885V312.45L117.373 289.73V302.705L142.434 324.885Z" fill="url(#paint35_linear_245_4033)"/>
<path d="M142.434 301.085V288.289L117.373 265.929V278.915L142.434 301.085Z" fill="url(#paint36_linear_245_4033)"/>
<path d="M142.434 348.866L197.598 325.966V311.539L142.434 334.079V348.866Z" fill="url(#paint37_linear_245_4033)"/>
<path d="M142.434 324.885L197.598 302.525V289.73L142.434 312.45V324.885Z" fill="url(#paint38_linear_245_4033)"/>
<path d="M142.434 301.085L197.598 279.455V265.929L142.434 288.289V301.085Z" fill="url(#paint39_linear_245_4033)"/>
<path d="M172.367 245.009L117.373 265.929L142.434 288.279L197.609 265.929L172.367 245.009ZM139.373 265.929L163.714 256.184L175.429 265.929L150.728 275.663L139.373 265.929Z" fill="url(#paint40_linear_245_4033)"/>
<path opacity="0.8" d="M86.7614 287.294L79.9082 289.73L149.256 350.889L154.838 348.57L86.7614 287.294Z" fill="url(#paint41_linear_245_4033)"/>
<path opacity="0.9" d="M79.9082 289.73V298.701L143.038 357.16V353.527L149.256 350.889L79.9082 289.73Z" fill="url(#paint42_linear_245_4033)"/>
<path d="M169.084 353.834L249.712 322.46V330.203L173.194 361.302V357.722L169.084 353.834Z" fill="url(#paint43_linear_245_4033)"/>
<path opacity="0.9" d="M180.174 247.085L187.684 245.009L255.231 303.87L247.975 306.677L180.174 247.085Z" fill="url(#paint44_linear_245_4033)"/>
<path d="M180.174 247.086V251.481L197.609 265.929V270.886L242.086 311.539V308.955L247.975 306.677L180.174 247.086Z" fill="url(#paint45_linear_245_4033)"/>
<path opacity="0.3" d="M164.423 21.8094L172.717 18.7483L230.412 69.411L223.379 72.112L164.423 21.8094Z" fill="url(#paint46_linear_245_4033)"/>
<path opacity="0.3" d="M223.379 166.225L230.412 163.343V69.4115L223.379 72.1125V166.225Z" fill="url(#paint47_linear_245_4033)"/>
<path opacity="0.1" d="M86.814 83.2018L175.249 52.3678L208.243 79.9606L115.477 110.519L114.672 108.623L86.814 83.2018Z" fill="url(#paint48_linear_245_4033)"/>
<path opacity="0.1" d="M208.243 79.9612L206.612 150.537L115.476 185.968V110.52L208.243 79.9612Z" fill="url(#paint49_linear_245_4033)"/>
<path opacity="0.6" d="M44.625 58.0564L107.363 110.52L108.443 208.794L44.625 154.329V58.0564Z" fill="url(#paint50_linear_245_4033)"/>
<path d="M44.625 58.056L54.9842 54.4441L116.822 110.075V205.85L108.443 208.794L107.363 110.519L44.625 58.056Z" fill="url(#paint51_linear_245_4033)"/>
<path opacity="0.3" d="M86.814 83.2024V157.57L115.477 185.968L116.822 110.075L86.814 83.2024Z" fill="url(#paint52_linear_245_4033)"/>
<defs>
<linearGradient id="paint0_linear_245_4033" x1="169.448" y1="33.1047" x2="232.731" y2="192.123" gradientUnits="userSpaceOnUse">
<stop stop-color="#496EA4"/>
<stop offset="1" stop-color="#5E8AC7"/>
</linearGradient>
<linearGradient id="paint1_linear_245_4033" x1="76.2254" y1="130.057" x2="64.326" y2="101.931" gradientUnits="userSpaceOnUse">
<stop stop-color="#BCBCBC"/>
<stop offset="0.4475" stop-color="#949699"/>
<stop offset="1" stop-color="#3B3B3B"/>
</linearGradient>
<linearGradient id="paint2_linear_245_4033" x1="148.291" y1="109.74" x2="126.656" y2="64.5769" gradientUnits="userSpaceOnUse">
<stop stop-color="#BCBCBC"/>
<stop offset="0.1659" stop-color="#626566"/>
<stop offset="0.2086" stop-color="#525455"/>
<stop offset="0.2826" stop-color="#3D3F3F"/>
<stop offset="0.3692" stop-color="#2D2E2E"/>
<stop offset="0.4753" stop-color="#212222"/>
<stop offset="0.6216" stop-color="#1B1B1B"/>
<stop offset="1" stop-color="#191919"/>
</linearGradient>
<linearGradient id="paint3_linear_245_4033" x1="99.7968" y1="167.809" x2="77.0798" y2="112.369" gradientUnits="userSpaceOnUse">
<stop stop-color="#BCBCBC"/>
<stop offset="0.4475" stop-color="#949699"/>
<stop offset="1" stop-color="#3B3B3B"/>
</linearGradient>
<linearGradient id="paint4_linear_245_4033" x1="96.637" y1="101.592" x2="197.06" y2="101.592" gradientUnits="userSpaceOnUse">
<stop stop-color="#BCBCBC"/>
<stop offset="0.4475" stop-color="#949699"/>
<stop offset="1" stop-color="#3B3B3B"/>
</linearGradient>
<linearGradient id="paint5_linear_245_4033" x1="151.097" y1="131.209" x2="144.606" y2="110.656" gradientUnits="userSpaceOnUse">
<stop stop-color="#BCBCBC"/>
<stop offset="0.4475" stop-color="#949699"/>
<stop offset="1" stop-color="#3B3B3B"/>
</linearGradient>
<linearGradient id="paint6_linear_245_4033" x1="166.204" y1="176.405" x2="132.309" y2="121.595" gradientUnits="userSpaceOnUse">
<stop stop-color="#BCBCBC"/>
<stop offset="0.4475" stop-color="#949699"/>
<stop offset="1" stop-color="#3B3B3B"/>
</linearGradient>
<linearGradient id="paint7_linear_245_4033" x1="186.133" y1="83.0447" x2="93.304" y2="115.31" gradientUnits="userSpaceOnUse">
<stop stop-color="#BCBCBC"/>
<stop offset="0.4475" stop-color="#949699"/>
<stop offset="1" stop-color="#3B3B3B"/>
</linearGradient>
<linearGradient id="paint8_linear_245_4033" x1="75.5873" y1="303.1" x2="89.3797" y2="287.415" gradientUnits="userSpaceOnUse">
<stop stop-color="#BCBCBC"/>
<stop offset="0.4475" stop-color="#949699"/>
<stop offset="1" stop-color="#3B3B3B"/>
</linearGradient>
<linearGradient id="paint9_linear_245_4033" x1="73.6228" y1="295.687" x2="60.2361" y2="284.126" gradientUnits="userSpaceOnUse">
<stop stop-color="#BCBCBC"/>
<stop offset="0.4475" stop-color="#949699"/>
<stop offset="1" stop-color="#3B3B3B"/>
</linearGradient>
<linearGradient id="paint10_linear_245_4033" x1="77.1835" y1="311.434" x2="76.9131" y2="251.667" gradientUnits="userSpaceOnUse">
<stop stop-color="#BCBCBC"/>
<stop offset="0.1659" stop-color="#626566"/>
<stop offset="0.2086" stop-color="#525455"/>
<stop offset="0.2826" stop-color="#3D3F3F"/>
<stop offset="0.3692" stop-color="#2D2E2E"/>
<stop offset="0.4753" stop-color="#212222"/>
<stop offset="0.6216" stop-color="#1B1B1B"/>
<stop offset="1" stop-color="#191919"/>
</linearGradient>
<linearGradient id="paint11_linear_245_4033" x1="175.672" y1="267.17" x2="175.402" y2="207.411" gradientUnits="userSpaceOnUse">
<stop stop-color="#BCBCBC"/>
<stop offset="0.1659" stop-color="#626566"/>
<stop offset="0.2086" stop-color="#525455"/>
<stop offset="0.2826" stop-color="#3D3F3F"/>
<stop offset="0.3692" stop-color="#2D2E2E"/>
<stop offset="0.4753" stop-color="#212222"/>
<stop offset="0.6216" stop-color="#1B1B1B"/>
<stop offset="1" stop-color="#191919"/>
</linearGradient>
<linearGradient id="paint12_linear_245_4033" x1="172.509" y1="265.298" x2="163.314" y2="236.09" gradientUnits="userSpaceOnUse">
<stop stop-color="#BCBCBC"/>
<stop offset="0.4475" stop-color="#949699"/>
<stop offset="1" stop-color="#3B3B3B"/>
</linearGradient>
<linearGradient id="paint13_linear_245_4033" x1="176.831" y1="262.021" x2="188.19" y2="239.845" gradientUnits="userSpaceOnUse">
<stop stop-color="#BCBCBC"/>
<stop offset="0.4475" stop-color="#949699"/>
<stop offset="1" stop-color="#3B3B3B"/>
</linearGradient>
<linearGradient id="paint14_linear_245_4033" x1="154.087" y1="340.367" x2="159.135" y2="359.478" gradientUnits="userSpaceOnUse">
<stop stop-color="#BCBCBC"/>
<stop offset="0.4475" stop-color="#949699"/>
<stop offset="1" stop-color="#3B3B3B"/>
</linearGradient>
<linearGradient id="paint15_linear_245_4033" x1="135.488" y1="353.483" x2="158.926" y2="379.806" gradientUnits="userSpaceOnUse">
<stop stop-color="#BCBCBC"/>
<stop offset="0.1659" stop-color="#626566"/>
<stop offset="0.2086" stop-color="#525455"/>
<stop offset="0.2826" stop-color="#3D3F3F"/>
<stop offset="0.3692" stop-color="#2D2E2E"/>
<stop offset="0.4753" stop-color="#212222"/>
<stop offset="0.6216" stop-color="#1B1B1B"/>
<stop offset="1" stop-color="#191919"/>
</linearGradient>
<linearGradient id="paint16_linear_245_4033" x1="174.434" y1="374.81" x2="161.047" y2="370.077" gradientUnits="userSpaceOnUse">
<stop stop-color="#BCBCBC"/>
<stop offset="0.4475" stop-color="#949699"/>
<stop offset="1" stop-color="#3B3B3B"/>
</linearGradient>
<linearGradient id="paint17_linear_245_4033" x1="236.268" y1="306.601" x2="266.738" y2="313.452" gradientUnits="userSpaceOnUse">
<stop stop-color="#BCBCBC"/>
<stop offset="0.4475" stop-color="#949699"/>
<stop offset="1" stop-color="#3B3B3B"/>
</linearGradient>
<linearGradient id="paint18_linear_245_4033" x1="234.959" y1="322.227" x2="254.85" y2="326.699" gradientUnits="userSpaceOnUse">
<stop stop-color="#BCBCBC"/>
<stop offset="0.4475" stop-color="#949699"/>
<stop offset="1" stop-color="#3B3B3B"/>
</linearGradient>
<linearGradient id="paint19_linear_245_4033" x1="251.545" y1="325.005" x2="270.4" y2="329.245" gradientUnits="userSpaceOnUse">
<stop stop-color="#BCBCBC"/>
<stop offset="0.4475" stop-color="#949699"/>
<stop offset="1" stop-color="#3B3B3B"/>
</linearGradient>
<linearGradient id="paint20_linear_245_4033" x1="124.697" y1="254.007" x2="129.202" y2="264.064" gradientUnits="userSpaceOnUse">
<stop stop-color="#496EA4"/>
<stop offset="0.3877" stop-color="#B9D0EB"/>
<stop offset="1" stop-color="#5E8AC7"/>
</linearGradient>
<linearGradient id="paint21_linear_245_4033" x1="204.392" y1="330.556" x2="208.896" y2="340.613" gradientUnits="userSpaceOnUse">
<stop stop-color="#496EA4"/>
<stop offset="0.3877" stop-color="#B9D0EB"/>
<stop offset="1" stop-color="#5E8AC7"/>
</linearGradient>
<linearGradient id="paint22_linear_245_4033" x1="66.8301" y1="22.7489" x2="169.057" y2="251" gradientUnits="userSpaceOnUse">
<stop stop-color="#91A9CF" stop-opacity="0"/>
<stop offset="1" stop-color="#496EA4"/>
</linearGradient>
<linearGradient id="paint23_linear_245_4033" x1="92.4876" y1="-3.93172" x2="205.859" y2="249.205" gradientUnits="userSpaceOnUse">
<stop stop-color="#91A9CF" stop-opacity="0"/>
<stop offset="1" stop-color="#496EA4"/>
</linearGradient>
<linearGradient id="paint24_linear_245_4033" x1="132.826" y1="8.4633" x2="234.949" y2="236.484" gradientUnits="userSpaceOnUse">
<stop stop-color="#91A9CF" stop-opacity="0"/>
<stop offset="1" stop-color="#496EA4"/>
</linearGradient>
<linearGradient id="paint25_linear_245_4033" x1="149.934" y1="310.735" x2="118.022" y2="283.691" gradientUnits="userSpaceOnUse">
<stop stop-color="#BCBCBC"/>
<stop offset="0.1659" stop-color="#626566"/>
<stop offset="0.2086" stop-color="#525455"/>
<stop offset="0.2826" stop-color="#3D3F3F"/>
<stop offset="0.3692" stop-color="#2D2E2E"/>
<stop offset="0.4753" stop-color="#212222"/>
<stop offset="0.6216" stop-color="#1B1B1B"/>
<stop offset="1" stop-color="#191919"/>
</linearGradient>
<linearGradient id="paint26_linear_245_4033" x1="149.121" y1="333.181" x2="117.87" y2="306.696" gradientUnits="userSpaceOnUse">
<stop stop-color="#BCBCBC"/>
<stop offset="0.1659" stop-color="#626566"/>
<stop offset="0.2086" stop-color="#525455"/>
<stop offset="0.2826" stop-color="#3D3F3F"/>
<stop offset="0.3692" stop-color="#2D2E2E"/>
<stop offset="0.4753" stop-color="#212222"/>
<stop offset="0.6216" stop-color="#1B1B1B"/>
<stop offset="1" stop-color="#191919"/>
</linearGradient>
<linearGradient id="paint27_linear_245_4033" x1="183.946" y1="312.892" x2="152.44" y2="286.192" gradientUnits="userSpaceOnUse">
<stop stop-color="#BCBCBC"/>
<stop offset="0.1659" stop-color="#626566"/>
<stop offset="0.2086" stop-color="#525455"/>
<stop offset="0.2826" stop-color="#3D3F3F"/>
<stop offset="0.3692" stop-color="#2D2E2E"/>
<stop offset="0.4753" stop-color="#212222"/>
<stop offset="0.6216" stop-color="#1B1B1B"/>
<stop offset="1" stop-color="#191919"/>
</linearGradient>
<linearGradient id="paint28_linear_245_4033" x1="184.253" y1="334.74" x2="150.987" y2="306.548" gradientUnits="userSpaceOnUse">
<stop stop-color="#BCBCBC"/>
<stop offset="0.1659" stop-color="#626566"/>
<stop offset="0.2086" stop-color="#525455"/>
<stop offset="0.2826" stop-color="#3D3F3F"/>
<stop offset="0.3692" stop-color="#2D2E2E"/>
<stop offset="0.4753" stop-color="#212222"/>
<stop offset="0.6216" stop-color="#1B1B1B"/>
<stop offset="1" stop-color="#191919"/>
</linearGradient>
<linearGradient id="paint29_linear_245_4033" x1="177.314" y1="281.628" x2="150.269" y2="260.499" gradientUnits="userSpaceOnUse">
<stop stop-color="#BED6EF"/>
<stop offset="1" stop-color="#496EA4"/>
</linearGradient>
<linearGradient id="paint30_linear_245_4033" x1="153.812" y1="312.058" x2="124.965" y2="289.521" gradientUnits="userSpaceOnUse">
<stop stop-color="#BED6EF"/>
<stop offset="1" stop-color="#496EA4"/>
</linearGradient>
<linearGradient id="paint31_linear_245_4033" x1="142.432" y1="294.484" x2="191.966" y2="294.484" gradientUnits="userSpaceOnUse">
<stop stop-color="#496EA4"/>
<stop offset="0.3877" stop-color="#B9D0EB"/>
<stop offset="1" stop-color="#5E8AC7"/>
</linearGradient>
<linearGradient id="paint32_linear_245_4033" x1="142.432" y1="318.275" x2="191.966" y2="318.275" gradientUnits="userSpaceOnUse">
<stop stop-color="#496EA4"/>
<stop offset="0.3877" stop-color="#B9D0EB"/>
<stop offset="1" stop-color="#5E8AC7"/>
</linearGradient>
<linearGradient id="paint33_linear_245_4033" x1="154.085" y1="336.386" x2="124.868" y2="313.56" gradientUnits="userSpaceOnUse">
<stop stop-color="#BED6EF"/>
<stop offset="1" stop-color="#496EA4"/>
</linearGradient>
<linearGradient id="paint34_linear_245_4033" x1="147.229" y1="336.781" x2="123.927" y2="328.543" gradientUnits="userSpaceOnUse">
<stop stop-color="#BCBCBC"/>
<stop offset="0.4475" stop-color="#949699"/>
<stop offset="1" stop-color="#3B3B3B"/>
</linearGradient>
<linearGradient id="paint35_linear_245_4033" x1="147.025" y1="313.361" x2="123.997" y2="305.22" gradientUnits="userSpaceOnUse">
<stop stop-color="#BCBCBC"/>
<stop offset="0.4475" stop-color="#949699"/>
<stop offset="1" stop-color="#3B3B3B"/>
</linearGradient>
<linearGradient id="paint36_linear_245_4033" x1="147.025" y1="289.563" x2="123.997" y2="281.421" gradientUnits="userSpaceOnUse">
<stop stop-color="#BCBCBC"/>
<stop offset="0.4475" stop-color="#949699"/>
<stop offset="1" stop-color="#3B3B3B"/>
</linearGradient>
<linearGradient id="paint37_linear_245_4033" x1="199.077" y1="328.025" x2="134.171" y2="332.893" gradientUnits="userSpaceOnUse">
<stop stop-color="#BCBCBC"/>
<stop offset="0.4475" stop-color="#949699"/>
<stop offset="1" stop-color="#3B3B3B"/>
</linearGradient>
<linearGradient id="paint38_linear_245_4033" x1="198.995" y1="305.134" x2="134.271" y2="309.988" gradientUnits="userSpaceOnUse">
<stop stop-color="#BCBCBC"/>
<stop offset="0.4475" stop-color="#949699"/>
<stop offset="1" stop-color="#3B3B3B"/>
</linearGradient>
<linearGradient id="paint39_linear_245_4033" x1="198.995" y1="281.335" x2="134.271" y2="286.19" gradientUnits="userSpaceOnUse">
<stop stop-color="#BCBCBC"/>
<stop offset="0.4475" stop-color="#949699"/>
<stop offset="1" stop-color="#3B3B3B"/>
</linearGradient>
<linearGradient id="paint40_linear_245_4033" x1="197.764" y1="263.622" x2="107.926" y2="270.36" gradientUnits="userSpaceOnUse">
<stop stop-color="#BCBCBC"/>
<stop offset="0.4475" stop-color="#949699"/>
<stop offset="1" stop-color="#3B3B3B"/>
</linearGradient>
<linearGradient id="paint41_linear_245_4033" x1="59.3593" y1="305.906" x2="140.515" y2="324.154" gradientUnits="userSpaceOnUse">
<stop stop-color="#496EA4"/>
<stop offset="0.3877" stop-color="#B9D0EB"/>
<stop offset="1" stop-color="#5E8AC7"/>
</linearGradient>
<linearGradient id="paint42_linear_245_4033" x1="88.4248" y1="296.335" x2="145.758" y2="358.716" gradientUnits="userSpaceOnUse">
<stop stop-color="#496EA4"/>
<stop offset="0.3877" stop-color="#B9D0EB"/>
<stop offset="1" stop-color="#5E8AC7"/>
</linearGradient>
<linearGradient id="paint43_linear_245_4033" x1="239.035" y1="325.66" x2="164.573" y2="366.767" gradientUnits="userSpaceOnUse">
<stop stop-color="#496EA4" stop-opacity="0.7"/>
<stop offset="0.3877" stop-color="#B9D0EB"/>
<stop offset="1" stop-color="#5E8AC7"/>
</linearGradient>
<linearGradient id="paint44_linear_245_4033" x1="230.196" y1="268.582" x2="196.972" y2="286.923" gradientUnits="userSpaceOnUse">
<stop stop-color="#496EA4" stop-opacity="0.7"/>
<stop offset="0.3877" stop-color="#B9D0EB"/>
<stop offset="1" stop-color="#5E8AC7"/>
</linearGradient>
<linearGradient id="paint45_linear_245_4033" x1="224.157" y1="272.126" x2="195.782" y2="287.791" gradientUnits="userSpaceOnUse">
<stop stop-color="#496EA4" stop-opacity="0.7"/>
<stop offset="0.3877" stop-color="#B9D0EB"/>
<stop offset="1" stop-color="#5E8AC7"/>
</linearGradient>
<linearGradient id="paint46_linear_245_4033" x1="153.942" y1="-13.4161" x2="291.46" y2="45.0026" gradientUnits="userSpaceOnUse">
<stop stop-color="#F59848"/>
<stop offset="0.515115" stop-color="#BD5103"/>
<stop offset="0.859876" stop-color="#573E2A"/>
<stop offset="1" stop-color="#1F1F1F"/>
</linearGradient>
<linearGradient id="paint47_linear_245_4033" x1="222.262" y1="11.0584" x2="239.553" y2="11.49" gradientUnits="userSpaceOnUse">
<stop stop-color="#F59848"/>
<stop offset="0.515115" stop-color="#BD5103"/>
<stop offset="0.859876" stop-color="#573E2A"/>
<stop offset="1" stop-color="#1F1F1F"/>
</linearGradient>
<linearGradient id="paint48_linear_245_4033" x1="67.5281" y1="17.3176" x2="264.755" y2="158.797" gradientUnits="userSpaceOnUse">
<stop stop-color="#F59848"/>
<stop offset="0.515115" stop-color="#BD5103"/>
<stop offset="0.859876" stop-color="#573E2A"/>
<stop offset="1" stop-color="#1F1F1F"/>
</linearGradient>
<linearGradient id="paint49_linear_245_4033" x1="100.743" y1="16.0665" x2="310.034" y2="78.9843" gradientUnits="userSpaceOnUse">
<stop stop-color="#F59848"/>
<stop offset="0.515115" stop-color="#BD5103"/>
<stop offset="0.859876" stop-color="#573E2A"/>
<stop offset="1" stop-color="#1F1F1F"/>
</linearGradient>
<linearGradient id="paint50_linear_245_4033" x1="116.335" y1="220.789" x2="48.1837" y2="71.5061" gradientUnits="userSpaceOnUse">
<stop stop-color="#BED6EF"/>
<stop offset="1" stop-color="#496EA4" stop-opacity="0.3"/>
</linearGradient>
<linearGradient id="paint51_linear_245_4033" x1="136.806" y1="212.388" x2="68.3251" y2="62.3836" gradientUnits="userSpaceOnUse">
<stop stop-color="#BED6EF"/>
<stop offset="1" stop-color="#496EA4" stop-opacity="0.3"/>
</linearGradient>
<linearGradient id="paint52_linear_245_4033" x1="82.048" y1="21.2613" x2="155.132" y2="28.5924" gradientUnits="userSpaceOnUse">
<stop stop-color="#F59848"/>
<stop offset="0.515115" stop-color="#BD5103"/>
<stop offset="0.859876" stop-color="#573E2A"/>
<stop offset="1" stop-color="#1F1F1F"/>
</linearGradient>
</defs>
</svg>
