<svg width="441" height="441" viewBox="0 0 441 441" fill="none" xmlns="http://www.w3.org/2000/svg">
<circle cx="220.5" cy="220.5" r="161.417" transform="rotate(-30 220.5 220.5)" fill="url(#paint0_linear_359_689)"/>
<path d="M185 235.956L219.46 217.142H223.765L256.838 239.581L225.991 260.495L220.663 263.178L185 235.956Z" fill="url(#paint1_linear_359_689)"/>
<path d="M218.35 339L215.379 317.198L220.663 320.981L246.95 303.658L218.35 339Z" fill="url(#paint2_linear_359_689)"/>
<path d="M181 256.141L186.029 253.371L220.092 280.409L257.333 257.05L260.854 259.657L220.092 285.317L181 256.141Z" fill="url(#paint3_linear_359_689)"/>
<path d="M181 277.628L185.762 274.743L220.092 300.371L256.049 278.019L260.854 280.92L220.092 305.976L181 277.628Z" fill="url(#paint4_linear_359_689)"/>
<path d="M220.092 305.976L181 277.628V293.007L220.092 320.981V316.719L184.151 291.157V284.67L220.092 310.423V305.976Z" fill="url(#paint5_linear_359_689)"/>
<path d="M220.092 305.976L260.854 280.92V294.118L220.092 320.981V316.719L257.377 292.033L257.241 286.335L220.092 310.423V305.976Z" fill="url(#paint6_linear_359_689)"/>
<path d="M181 271.189L220.092 300.371V294.673L184.151 269.203V263.178L220.092 289.579V285.317L181 256.141V271.189Z" fill="url(#paint7_linear_359_689)"/>
<path d="M220.092 300.371L260.854 275.037V259.657L220.092 285.317V289.579L257.333 265.959V271.331L220.092 294.673V300.371Z" fill="url(#paint8_linear_359_689)"/>
<path d="M220.092 280.409L260.854 254.841V240.577L220.092 266.607V271.793L257.333 248.081V252.435L220.092 274.852V280.409Z" fill="url(#paint9_linear_359_689)"/>
<path d="M184.429 243.172V246.133L220.092 274.852V280.408L181 249.377V235.406L181.343 235.205L220.092 266.607V271.793L184.429 243.172Z" fill="url(#paint10_linear_359_689)"/>
<path d="M220.288 222.28L194.878 236.598L220.288 256.882L246.378 240.217L220.288 222.28ZM203.77 237.632L220.402 228.255L237.48 240L220.402 250.906L203.77 237.632ZM220.288 222.28L194.878 236.598L220.288 256.882L246.378 240.217L220.288 222.28ZM203.77 237.632L220.402 228.255L237.48 240L220.402 250.906L203.77 237.632ZM220.092 212.554L181.343 235.205L181 235.406L220.092 266.607L260.854 240.576L220.092 212.554ZM189.016 235.923L220.206 218.345L252.239 240.364L220.206 260.816L189.016 235.923ZM220.288 222.28L194.878 236.598L220.288 256.882L246.378 240.217L220.288 222.28ZM203.77 237.632L220.402 228.255L237.48 240L220.402 250.906L203.77 237.632ZM220.288 222.28L194.878 236.598L220.288 256.882L246.378 240.217L220.288 222.28ZM203.77 237.632L220.402 228.255L237.48 240L220.402 250.906L203.77 237.632ZM220.288 222.28L194.878 236.598L220.288 256.882L246.378 240.217L220.288 222.28ZM203.77 237.632L220.402 228.255L237.48 240L220.402 250.906L203.77 237.632Z" fill="url(#paint11_linear_359_689)"/>
<path d="M220.288 222.28L194.878 236.598L220.288 256.882L246.378 240.217L220.288 222.28ZM203.771 237.632L220.402 228.255L237.48 240L220.402 250.906L203.771 237.632Z" fill="#A39478"/>
<path d="M220.288 222.28L194.878 236.598L220.288 256.882L246.378 240.217L220.288 222.28ZM203.771 237.632L220.402 228.255L237.48 240L220.402 250.906L203.771 237.632Z" fill="url(#paint12_linear_359_689)"/>
<path d="M184.151 291.157V284.67L220.092 310.423V316.719L184.151 291.157Z" fill="url(#paint13_linear_359_689)"/>
<path d="M220.092 294.673V289.579L184.151 263.178V269.203L220.092 294.673Z" fill="url(#paint14_linear_359_689)"/>
<path d="M220.092 274.852V271.793L184.429 243.172V246.133L220.092 274.852Z" fill="url(#paint15_linear_359_689)"/>
<path d="M220.092 316.719L257.377 292.033L257.241 286.335L220.092 310.423V316.719Z" fill="url(#paint16_linear_359_689)"/>
<path d="M220.092 294.673V289.579L257.333 265.959V271.331L220.092 294.673Z" fill="url(#paint17_linear_359_689)"/>
<path d="M257.333 252.435V248.081L220.092 271.793V274.852L257.333 252.435Z" fill="url(#paint18_linear_359_689)"/>
<path d="M192.908 301.53L217.779 339L214.807 317.198L192.908 301.53Z" fill="url(#paint19_linear_359_689)"/>
<path opacity="0.6" d="M198.345 237.632L208.38 107.279L272.098 104.035L228.854 242.041L214.976 250.906L198.345 237.632Z" fill="url(#paint20_linear_359_689)"/>
<path opacity="0.3" d="M232.054 240C232.054 240 214.824 252.99 214.976 250.906C215.129 248.822 169 104.035 169 104.035L259.042 102L232.054 240Z" fill="url(#paint21_linear_359_689)"/>
<path d="M231.748 171.694L238.67 176.505C238.67 176.505 244.358 180.004 242.023 191.422C239.688 202.84 228.564 218.927 212.537 218.829C209.19 216.979 204.172 213.637 204.172 213.637C204.172 213.637 214.077 218.138 225.152 206.062C236.227 193.985 239.073 177.675 231.748 171.694Z" fill="url(#paint22_linear_359_689)"/>
<path d="M204.172 213.637C204.172 213.637 192.988 206.856 203.513 187.498C215.862 166.431 229.07 169.838 231.748 171.694C234.425 173.555 240.199 183.237 229.963 199.787C219.726 216.331 207.508 215.401 204.172 213.637Z" fill="url(#paint23_linear_359_689)"/>
<path d="M203.856 211.227C203.856 211.227 195.388 204.005 204.624 187.536C214.757 171.378 228.254 169.174 232.183 174.845C232.33 175.498 232.325 175.928 232.325 175.928C232.325 175.928 230.284 172.538 225.805 172.478C221.32 172.412 214.295 174.867 207.16 184.935C200.025 195.003 199.35 204.587 203.856 211.227Z" fill="url(#paint24_linear_359_689)"/>
<path d="M232.183 174.839C232.183 174.839 240.167 182.921 228.923 199.923C217.68 216.925 204.787 212.788 203.856 211.226C202.92 209.659 201.924 207.346 201.924 207.346C201.924 207.346 203.497 213.3 211.753 211.967C220.009 210.639 227.781 201.958 230.768 195.313C233.756 188.668 235.226 183.085 233.168 177.229C232.815 176.418 232.325 175.928 232.325 175.928L232.183 174.839Z" fill="url(#paint25_linear_359_689)"/>
<path d="M234.447 175.378C234.447 175.378 235.813 178.595 235.715 180.363C238.3 182.023 242.589 184.973 242.589 184.973C242.589 184.973 242.273 182.159 241.751 180.918C240.537 180.135 234.447 175.378 234.447 175.378Z" fill="url(#paint26_linear_359_689)"/>
<path d="M242.501 188.157L235.742 183.966C235.742 183.966 235.443 186.459 235.301 187.095C237.533 188.374 242.017 191.422 242.017 191.422C242.017 191.422 242.458 188.739 242.501 188.157Z" fill="url(#paint27_linear_359_689)"/>
<path d="M241.321 194.149C241.321 194.149 240.662 196.184 240.216 197.235C238.877 196.391 233.527 192.87 233.527 192.87C233.527 192.87 234.741 189.735 234.757 189.332C236.444 190.579 241.321 194.149 241.321 194.149Z" fill="url(#paint28_linear_359_689)"/>
<path d="M239.084 199.738C239.084 199.738 238.017 201.795 237.522 202.612C235.715 201.518 230.855 198.29 230.855 198.29C230.855 198.29 232.27 196.113 232.504 195.172C233.957 196.146 239.084 199.738 239.084 199.738Z" fill="url(#paint29_linear_359_689)"/>
<path d="M236.042 204.919C236.042 204.919 234.665 206.818 234.235 207.341C232.107 205.98 227.813 202.971 227.813 202.971C227.813 202.971 228.989 201.36 229.685 200.222C231.035 201.24 236.042 204.919 236.042 204.919Z" fill="url(#paint30_linear_359_689)"/>
<path d="M232.51 209.338C232.51 209.338 230.632 211.232 230.186 211.629C229.212 210.976 224.303 207.118 224.303 207.118C224.303 207.118 225.919 205.539 226.349 204.843C227.383 205.599 232.51 209.338 232.51 209.338Z" fill="url(#paint31_linear_359_689)"/>
<path d="M228.265 213.229C228.265 213.229 225.849 215.063 225.462 215.15C224.608 214.486 219.846 210.867 219.846 210.867C219.846 210.867 222.104 209.398 222.561 208.767C223.748 209.692 228.265 213.229 228.265 213.229Z" fill="url(#paint32_linear_359_689)"/>
<path d="M223.574 216.195C223.574 216.195 221.342 217.289 219.867 217.708C218.469 216.723 214.393 213.605 214.393 213.605C214.393 213.605 216.999 212.739 217.843 212.092C219.155 213.077 223.574 216.195 223.574 216.195Z" fill="url(#paint33_linear_359_689)"/>
<path d="M218.017 218.214C218.017 218.214 215.764 218.818 213.756 218.802C211.862 217.589 207.198 214.465 207.198 214.465C207.198 214.465 210.18 214.769 211.715 214.307C213.146 215.254 218.017 218.214 218.017 218.214Z" fill="url(#paint34_linear_359_689)"/>
<path d="M222.844 180.238L222.109 189.648L220.052 192.07L214.757 206.851L212.542 211.433L211.622 206.78L209.266 190.905L221.565 175.623L220.771 182.508L222.844 180.238Z" fill="url(#paint35_linear_359_689)"/>
<path d="M221.897 182.083L221.62 184.706L211.366 198.481L210.452 191.526L211.214 190.519L211.481 192.56L211.519 192.592L211.987 195.689L218.169 187.177L219.111 181.327L212.101 191.264L212.03 189.213L220.722 177.582L219.824 184.723L221.897 182.083Z" fill="url(#paint36_linear_359_689)"/>
<path d="M221.369 187.079L221.141 189.267L219.307 191.64L213.952 205.86L212.335 205.828L211.758 201.458L212.635 199.243L213.445 197.207L215.22 194.889L212.863 200.99L213.282 204.173L218.599 190.453L221.369 187.079Z" fill="url(#paint37_linear_359_689)"/>
<path opacity="0.2" d="M233.28 240L216.202 250.906L199.571 237.632L168 104.035H273.324L233.28 240Z" fill="url(#paint38_linear_359_689)"/>
<defs>
<linearGradient id="paint0_linear_359_689" x1="220.5" y1="59.0828" x2="220.5" y2="381.917" gradientUnits="userSpaceOnUse">
<stop stop-color="#F59848" stop-opacity="0.16"/>
<stop offset="1" stop-color="#FEF5ED" stop-opacity="0"/>
</linearGradient>
<linearGradient id="paint1_linear_359_689" x1="238.05" y1="223.306" x2="158.915" y2="290.115" gradientUnits="userSpaceOnUse">
<stop stop-color="#496EA4"/>
<stop offset="0.3877" stop-color="#B9D0EB"/>
<stop offset="1" stop-color="#5E8AC7"/>
</linearGradient>
<linearGradient id="paint2_linear_359_689" x1="215.938" y1="329.11" x2="253.455" y2="288.258" gradientUnits="userSpaceOnUse">
<stop stop-color="#496EA4"/>
<stop offset="0.3877" stop-color="#B9D0EB"/>
<stop offset="1" stop-color="#5E8AC7"/>
</linearGradient>
<linearGradient id="paint3_linear_359_689" x1="220.696" y1="285.437" x2="220.973" y2="252.367" gradientUnits="userSpaceOnUse">
<stop stop-color="#949699"/>
<stop offset="0.4296" stop-color="#515251"/>
<stop offset="1" stop-color="#212121"/>
</linearGradient>
<linearGradient id="paint4_linear_359_689" x1="220.702" y1="306.092" x2="220.973" y2="273.771" gradientUnits="userSpaceOnUse">
<stop stop-color="#949699"/>
<stop offset="0.4296" stop-color="#515251"/>
<stop offset="1" stop-color="#212121"/>
</linearGradient>
<linearGradient id="paint5_linear_359_689" x1="227.215" y1="318.535" x2="187.197" y2="289.772" gradientUnits="userSpaceOnUse">
<stop stop-color="#BCBCBC"/>
<stop offset="0.4475" stop-color="#949699"/>
<stop offset="1" stop-color="#3B3B3B"/>
</linearGradient>
<linearGradient id="paint6_linear_359_689" x1="221.613" y1="320.983" x2="250.654" y2="288.746" gradientUnits="userSpaceOnUse">
<stop stop-color="#BCBCBC"/>
<stop offset="0.4475" stop-color="#949699"/>
<stop offset="1" stop-color="#3B3B3B"/>
</linearGradient>
<linearGradient id="paint7_linear_359_689" x1="235.423" y1="294.609" x2="183.27" y2="270.153" gradientUnits="userSpaceOnUse">
<stop stop-color="#BCBCBC"/>
<stop offset="0.4475" stop-color="#949699"/>
<stop offset="1" stop-color="#3B3B3B"/>
</linearGradient>
<linearGradient id="paint8_linear_359_689" x1="220.093" y1="280.015" x2="260.852" y2="280.015" gradientUnits="userSpaceOnUse">
<stop stop-color="#BCBCBC"/>
<stop offset="0.4475" stop-color="#949699"/>
<stop offset="1" stop-color="#3B3B3B"/>
</linearGradient>
<linearGradient id="paint9_linear_359_689" x1="220.093" y1="260.493" x2="260.852" y2="260.493" gradientUnits="userSpaceOnUse">
<stop stop-color="#BCBCBC"/>
<stop offset="0.4475" stop-color="#949699"/>
<stop offset="1" stop-color="#3B3B3B"/>
</linearGradient>
<linearGradient id="paint10_linear_359_689" x1="232.691" y1="281.494" x2="185.034" y2="246.188" gradientUnits="userSpaceOnUse">
<stop stop-color="#BCBCBC"/>
<stop offset="0.4475" stop-color="#949699"/>
<stop offset="1" stop-color="#3B3B3B"/>
</linearGradient>
<linearGradient id="paint11_linear_359_689" x1="226.074" y1="277.826" x2="219.682" y2="228.359" gradientUnits="userSpaceOnUse">
<stop stop-color="#949699"/>
<stop offset="0.4743" stop-color="#515251"/>
<stop offset="1" stop-color="#3B3B3B"/>
</linearGradient>
<linearGradient id="paint12_linear_359_689" x1="194.878" y1="239.581" x2="246.378" y2="239.581" gradientUnits="userSpaceOnUse">
<stop stop-color="#949699"/>
<stop offset="0.4743" stop-color="#515251"/>
<stop offset="1" stop-color="#3B3B3B"/>
</linearGradient>
<linearGradient id="paint13_linear_359_689" x1="227.834" y1="319.989" x2="185.036" y2="288.03" gradientUnits="userSpaceOnUse">
<stop stop-color="#496EA4"/>
<stop offset="0.3877" stop-color="#B9D0EB"/>
<stop offset="1" stop-color="#5E8AC7"/>
</linearGradient>
<linearGradient id="paint14_linear_359_689" x1="227.477" y1="298.324" x2="184.977" y2="266.587" gradientUnits="userSpaceOnUse">
<stop stop-color="#496EA4"/>
<stop offset="0.3877" stop-color="#B9D0EB"/>
<stop offset="1" stop-color="#5E8AC7"/>
</linearGradient>
<linearGradient id="paint15_linear_359_689" x1="227.776" y1="278.067" x2="185.377" y2="246.405" gradientUnits="userSpaceOnUse">
<stop stop-color="#496EA4"/>
<stop offset="0.3877" stop-color="#B9D0EB"/>
<stop offset="1" stop-color="#5E8AC7"/>
</linearGradient>
<linearGradient id="paint16_linear_359_689" x1="254.188" y1="288.183" x2="181.934" y2="349.183" gradientUnits="userSpaceOnUse">
<stop stop-color="#496EA4"/>
<stop offset="0.3877" stop-color="#B9D0EB"/>
<stop offset="1" stop-color="#5E8AC7"/>
</linearGradient>
<linearGradient id="paint17_linear_359_689" x1="254.095" y1="267.469" x2="183.354" y2="327.191" gradientUnits="userSpaceOnUse">
<stop stop-color="#496EA4"/>
<stop offset="0.3877" stop-color="#B9D0EB"/>
<stop offset="1" stop-color="#5E8AC7"/>
</linearGradient>
<linearGradient id="paint18_linear_359_689" x1="253.937" y1="249.26" x2="185.082" y2="307.39" gradientUnits="userSpaceOnUse">
<stop stop-color="#496EA4"/>
<stop offset="0.3877" stop-color="#B9D0EB"/>
<stop offset="1" stop-color="#5E8AC7"/>
</linearGradient>
<linearGradient id="paint19_linear_359_689" x1="212.95" y1="307.743" x2="192.524" y2="341.369" gradientUnits="userSpaceOnUse">
<stop stop-color="#496EA4"/>
<stop offset="0.3877" stop-color="#B9D0EB"/>
<stop offset="1" stop-color="#5E8AC7"/>
</linearGradient>
<linearGradient id="paint20_linear_359_689" x1="246.874" y1="64.7771" x2="222.974" y2="212.066" gradientUnits="userSpaceOnUse">
<stop stop-color="#B9D0EB" stop-opacity="0"/>
<stop offset="1" stop-color="#C4C4C4"/>
</linearGradient>
<linearGradient id="paint21_linear_359_689" x1="220.898" y1="60.6239" x2="196.982" y2="208.014" gradientUnits="userSpaceOnUse">
<stop stop-color="#B9D0EB" stop-opacity="0"/>
<stop offset="1" stop-color="#C4C4C4"/>
</linearGradient>
<linearGradient id="paint22_linear_359_689" x1="202.118" y1="198.007" x2="243.581" y2="192.558" gradientUnits="userSpaceOnUse">
<stop stop-color="#C29B33"/>
<stop offset="1" stop-color="#835923"/>
</linearGradient>
<linearGradient id="paint23_linear_359_689" x1="208.934" y1="215.675" x2="224.802" y2="172.288" gradientUnits="userSpaceOnUse">
<stop stop-color="#C29B33"/>
<stop offset="1" stop-color="#835923"/>
</linearGradient>
<linearGradient id="paint24_linear_359_689" x1="212.293" y1="225.062" x2="215.856" y2="192.484" gradientUnits="userSpaceOnUse">
<stop stop-color="#F2F2F3" stop-opacity="0"/>
<stop offset="1" stop-color="#7E5221"/>
</linearGradient>
<linearGradient id="paint25_linear_359_689" x1="207.993" y1="213.878" x2="234.989" y2="176.831" gradientUnits="userSpaceOnUse">
<stop stop-color="#F2F2F3" stop-opacity="0"/>
<stop offset="0.6246" stop-color="#B38B2E"/>
<stop offset="1" stop-color="#B38B2E" stop-opacity="0"/>
</linearGradient>
<linearGradient id="paint26_linear_359_689" x1="242.95" y1="180.804" x2="234.834" y2="179.664" gradientUnits="userSpaceOnUse">
<stop stop-color="#C29B33"/>
<stop offset="1" stop-color="#835923"/>
</linearGradient>
<linearGradient id="paint27_linear_359_689" x1="245.052" y1="189.255" x2="235.164" y2="186.756" gradientUnits="userSpaceOnUse">
<stop stop-color="#C29B33"/>
<stop offset="1" stop-color="#835923"/>
</linearGradient>
<linearGradient id="paint28_linear_359_689" x1="231.6" y1="192.2" x2="240.895" y2="193.92" gradientUnits="userSpaceOnUse">
<stop offset="0.000558651" stop-color="#7C5120"/>
<stop offset="1" stop-color="#AC832D"/>
</linearGradient>
<linearGradient id="paint29_linear_359_689" x1="240.293" y1="200.423" x2="230.101" y2="197.473" gradientUnits="userSpaceOnUse">
<stop stop-color="#C29B33"/>
<stop offset="1" stop-color="#835923"/>
</linearGradient>
<linearGradient id="paint30_linear_359_689" x1="236.976" y1="205.447" x2="221.6" y2="200.359" gradientUnits="userSpaceOnUse">
<stop stop-color="#C29B33"/>
<stop offset="1" stop-color="#835923"/>
</linearGradient>
<linearGradient id="paint31_linear_359_689" x1="233.208" y1="214.45" x2="227.829" y2="207.483" gradientUnits="userSpaceOnUse">
<stop offset="0.000558651" stop-color="#7C5120"/>
<stop offset="1" stop-color="#AC832D"/>
</linearGradient>
<linearGradient id="paint32_linear_359_689" x1="228.465" y1="217.765" x2="223.571" y2="211.427" gradientUnits="userSpaceOnUse">
<stop offset="0.000558651" stop-color="#7C5120"/>
<stop offset="1" stop-color="#AC832D"/>
</linearGradient>
<linearGradient id="paint33_linear_359_689" x1="223.797" y1="221.136" x2="218.457" y2="214.221" gradientUnits="userSpaceOnUse">
<stop offset="0.000558651" stop-color="#7C5120"/>
<stop offset="1" stop-color="#AC832D"/>
</linearGradient>
<linearGradient id="paint34_linear_359_689" x1="205.818" y1="214.332" x2="217.975" y2="218.25" gradientUnits="userSpaceOnUse">
<stop offset="0.000558651" stop-color="#7C5120"/>
<stop offset="1" stop-color="#AC832D"/>
</linearGradient>
<linearGradient id="paint35_linear_359_689" x1="219.184" y1="175.081" x2="210.905" y2="211.061" gradientUnits="userSpaceOnUse">
<stop stop-color="#B38B2E"/>
<stop offset="0.5307" stop-color="#BE9C4F" stop-opacity="0.7961"/>
<stop offset="1" stop-color="#B38B2E"/>
</linearGradient>
<linearGradient id="paint36_linear_359_689" x1="221.966" y1="176.699" x2="211.11" y2="197.613" gradientUnits="userSpaceOnUse">
<stop stop-color="#C29B33"/>
<stop offset="1" stop-color="#835923"/>
</linearGradient>
<linearGradient id="paint37_linear_359_689" x1="215.742" y1="205.073" x2="216.762" y2="191.702" gradientUnits="userSpaceOnUse">
<stop stop-color="#C29B33"/>
<stop offset="1" stop-color="#835923"/>
</linearGradient>
<linearGradient id="paint38_linear_359_689" x1="226.605" y1="58.247" x2="188.255" y2="353.797" gradientUnits="userSpaceOnUse">
<stop stop-color="#496EA4" stop-opacity="0"/>
<stop offset="0.3877" stop-color="#B9D0EB"/>
<stop offset="1" stop-color="#5E8AC7"/>
</linearGradient>
</defs>
</svg>
