<svg width="189" height="189" viewBox="0 0 189 189" fill="none" xmlns="http://www.w3.org/2000/svg">
<mask id="mask0_245_5140" style="mask-type:alpha" maskUnits="userSpaceOnUse" x="0" y="0" width="189" height="189">
<circle r="87" transform="matrix(1 0 0 -1 94.5 94.5)" fill="#C4C4C4" stroke="url(#paint0_linear_245_5140)" stroke-width="15"/>
</mask>
<g mask="url(#mask0_245_5140)">
<path d="M-25.292 143.314C-25.292 143.314 13.857 150.566 23.958 175.948C33.6182 200.279 73.4114 206.819 73.4114 206.819" stroke="url(#paint1_linear_245_5140)" stroke-opacity="0.13" stroke-width="15" stroke-miterlimit="10"/>
<path d="M-25.292 131.115C-25.292 131.115 22.7377 139.485 35.1096 170.119C46.9051 199.364 95.6805 206.819 95.6805 206.819" stroke="url(#paint2_linear_245_5140)" stroke-opacity="0.13" stroke-width="15" stroke-miterlimit="10"/>
<path d="M-25.292 118.881C-25.292 118.881 31.5844 128.404 46.2272 164.223C60.1921 198.483 117.95 206.819 117.95 206.819" stroke="url(#paint3_linear_245_5140)" stroke-opacity="0.13" stroke-width="15" stroke-miterlimit="10"/>
<path d="M-25.292 106.682C-25.292 106.682 40.465 117.322 57.3788 158.394C73.4791 197.568 140.219 206.819 140.219 206.819" stroke="url(#paint4_linear_245_5140)" stroke-opacity="0.13" stroke-width="15" stroke-miterlimit="10"/>
<path d="M-25.292 94.4822C-25.292 94.4822 49.3456 106.241 68.5304 152.532C86.766 196.653 162.455 206.819 162.455 206.819" stroke="url(#paint5_linear_245_5140)" stroke-opacity="0.13" stroke-width="15" stroke-miterlimit="10"/>
<path d="M-25.292 82.249C-25.292 82.249 58.1923 95.1262 79.6481 146.669C100.087 195.772 184.724 206.819 184.724 206.819" stroke="url(#paint6_linear_245_5140)" stroke-opacity="0.13" stroke-width="15" stroke-miterlimit="10"/>
<path d="M-25.292 70.0494C-25.292 70.0494 67.0729 84.0789 90.7997 140.806C113.374 194.857 206.993 206.819 206.993 206.819" stroke="url(#paint7_linear_245_5140)" stroke-opacity="0.13" stroke-width="15" stroke-miterlimit="10"/>
<path d="M-25.292 57.85C-25.292 57.85 75.9536 72.9977 101.917 134.978C126.661 193.942 229.262 206.819 229.262 206.819" stroke="url(#paint8_linear_245_5140)" stroke-opacity="0.13" stroke-width="15" stroke-miterlimit="10"/>
<path d="M-25.292 45.6164C-25.292 45.6164 84.8001 61.8824 113.069 129.082C139.948 193.061 251.498 206.819 251.498 206.819" stroke="url(#paint9_linear_245_5140)" stroke-opacity="0.13" stroke-width="15" stroke-miterlimit="10"/>
<path d="M-25.292 33.4178C-25.292 33.4178 93.6808 50.8011 124.187 123.219C153.235 192.146 273.767 206.819 273.767 206.819" stroke="url(#paint10_linear_245_5140)" stroke-opacity="0.13" stroke-width="15" stroke-miterlimit="10"/>
<path d="M-25.292 21.1844C-25.292 21.1844 102.561 39.7202 135.338 117.356C166.522 191.231 296.036 206.819 296.036 206.819" stroke="url(#paint11_linear_245_5140)" stroke-opacity="0.13" stroke-width="15" stroke-miterlimit="10"/>
<path d="M-25.292 8.98378C-25.292 8.98378 111.408 28.6387 146.456 111.494C179.809 190.35 318.305 206.819 318.305 206.819" stroke="url(#paint12_linear_245_5140)" stroke-opacity="0.13" stroke-width="15" stroke-miterlimit="10"/>
<path d="M-25.292 -3.21418C-25.292 -3.21418 120.289 17.5575 157.607 105.665C193.096 189.435 340.574 206.819 340.574 206.819" stroke="url(#paint13_linear_245_5140)" stroke-opacity="0.13" stroke-width="15" stroke-miterlimit="10"/>
<path d="M-25.292 -15.4478C-25.292 -15.4478 129.169 6.47619 168.759 99.7688C206.383 188.52 362.81 206.819 362.81 206.819" stroke="url(#paint14_linear_245_5140)" stroke-opacity="0.13" stroke-width="15" stroke-miterlimit="10"/>
<path d="M-25.292 -27.6483C-25.292 -27.6483 138.016 -4.60504 179.877 93.9401C219.67 187.639 385.079 206.819 385.079 206.819" stroke="url(#paint15_linear_245_5140)" stroke-opacity="0.13" stroke-width="15" stroke-miterlimit="10"/>
<path d="M-25.292 -39.8488C-25.292 -39.8488 146.897 -15.6863 191.028 88.0777C232.957 186.724 407.348 206.819 407.348 206.819" stroke="url(#paint16_linear_245_5140)" stroke-opacity="0.13" stroke-width="15" stroke-miterlimit="10"/>
<path d="M-25.292 -52.0823C-25.292 -52.0823 155.777 -26.8005 202.146 82.215C246.244 185.809 429.618 206.819 429.618 206.819" stroke="url(#paint17_linear_245_5140)" stroke-opacity="0.13" stroke-width="15" stroke-miterlimit="10"/>
<path d="M-25.292 -64.2804C-25.292 -64.2804 164.624 -37.8488 213.297 76.3525C259.531 184.928 451.854 206.819 451.854 206.819" stroke="url(#paint18_linear_245_5140)" stroke-opacity="0.13" stroke-width="15" stroke-miterlimit="10"/>
</g>
<defs>
<linearGradient id="paint0_linear_245_5140" x1="-30.0176" y1="-113.918" x2="385.845" y2="28.9433" gradientUnits="userSpaceOnUse">
<stop stop-color="#F59848"/>
<stop offset="0.515115" stop-color="#BD5103"/>
<stop offset="0.859876" stop-color="#573E2A"/>
<stop offset="1" stop-color="#1F1F1F"/>
</linearGradient>
<linearGradient id="paint1_linear_245_5140" x1="-40.9684" y1="245.096" x2="147.977" y2="144.213" gradientUnits="userSpaceOnUse">
<stop stop-color="#F59848"/>
<stop offset="0.258499" stop-color="#BD5103"/>
<stop offset="0.457186" stop-color="#BE5403"/>
<stop offset="0.528379" stop-color="#D28B00"/>
<stop offset="0.742859" stop-color="#CA7501"/>
<stop offset="0.859876" stop-color="#573E2A"/>
<stop offset="1" stop-color="#1F1F1F"/>
</linearGradient>
<linearGradient id="paint2_linear_245_5140" x1="-44.5053" y1="252.449" x2="184.176" y2="126.916" gradientUnits="userSpaceOnUse">
<stop stop-color="#F59848"/>
<stop offset="0.258499" stop-color="#BD5103"/>
<stop offset="0.457186" stop-color="#BE5403"/>
<stop offset="0.528379" stop-color="#D28B00"/>
<stop offset="0.742859" stop-color="#CA7501"/>
<stop offset="0.859876" stop-color="#573E2A"/>
<stop offset="1" stop-color="#1F1F1F"/>
</linearGradient>
<linearGradient id="paint3_linear_245_5140" x1="-48.0422" y1="259.823" x2="220.307" y2="109.662" gradientUnits="userSpaceOnUse">
<stop stop-color="#F59848"/>
<stop offset="0.258499" stop-color="#BD5103"/>
<stop offset="0.457186" stop-color="#BE5403"/>
<stop offset="0.528379" stop-color="#D28B00"/>
<stop offset="0.742859" stop-color="#CA7501"/>
<stop offset="0.859876" stop-color="#573E2A"/>
<stop offset="1" stop-color="#1F1F1F"/>
</linearGradient>
<linearGradient id="paint4_linear_245_5140" x1="-51.5791" y1="267.176" x2="256.315" y2="92.3546" gradientUnits="userSpaceOnUse">
<stop stop-color="#F59848"/>
<stop offset="0.258499" stop-color="#BD5103"/>
<stop offset="0.457186" stop-color="#BE5403"/>
<stop offset="0.528379" stop-color="#D28B00"/>
<stop offset="0.742859" stop-color="#CA7501"/>
<stop offset="0.859876" stop-color="#573E2A"/>
<stop offset="1" stop-color="#1F1F1F"/>
</linearGradient>
<linearGradient id="paint5_linear_245_5140" x1="-55.1106" y1="274.529" x2="292.247" y2="75.1" gradientUnits="userSpaceOnUse">
<stop stop-color="#F59848"/>
<stop offset="0.258499" stop-color="#BD5103"/>
<stop offset="0.457186" stop-color="#BE5403"/>
<stop offset="0.528379" stop-color="#D28B00"/>
<stop offset="0.742859" stop-color="#CA7501"/>
<stop offset="0.859876" stop-color="#573E2A"/>
<stop offset="1" stop-color="#1F1F1F"/>
</linearGradient>
<linearGradient id="paint6_linear_245_5140" x1="-58.6474" y1="281.903" x2="328.223" y2="57.8417" gradientUnits="userSpaceOnUse">
<stop stop-color="#F59848"/>
<stop offset="0.258499" stop-color="#BD5103"/>
<stop offset="0.457186" stop-color="#BE5403"/>
<stop offset="0.528379" stop-color="#D28B00"/>
<stop offset="0.742859" stop-color="#CA7501"/>
<stop offset="0.859876" stop-color="#573E2A"/>
<stop offset="1" stop-color="#1F1F1F"/>
</linearGradient>
<linearGradient id="paint7_linear_245_5140" x1="-62.1843" y1="289.256" x2="364.122" y2="40.5328" gradientUnits="userSpaceOnUse">
<stop stop-color="#F59848"/>
<stop offset="0.258499" stop-color="#BD5103"/>
<stop offset="0.457186" stop-color="#BE5403"/>
<stop offset="0.528379" stop-color="#D28B00"/>
<stop offset="0.742859" stop-color="#CA7501"/>
<stop offset="0.859876" stop-color="#573E2A"/>
<stop offset="1" stop-color="#1F1F1F"/>
</linearGradient>
<linearGradient id="paint8_linear_245_5140" x1="-65.7212" y1="296.609" x2="400.002" y2="23.2238" gradientUnits="userSpaceOnUse">
<stop stop-color="#F59848"/>
<stop offset="0.258499" stop-color="#BD5103"/>
<stop offset="0.457186" stop-color="#BE5403"/>
<stop offset="0.528379" stop-color="#D28B00"/>
<stop offset="0.742859" stop-color="#CA7501"/>
<stop offset="0.859876" stop-color="#573E2A"/>
<stop offset="1" stop-color="#1F1F1F"/>
</linearGradient>
<linearGradient id="paint9_linear_245_5140" x1="-69.2527" y1="303.983" x2="435.897" y2="6.0205" gradientUnits="userSpaceOnUse">
<stop stop-color="#F59848"/>
<stop offset="0.258499" stop-color="#BD5103"/>
<stop offset="0.457186" stop-color="#BE5403"/>
<stop offset="0.528379" stop-color="#D28B00"/>
<stop offset="0.742859" stop-color="#CA7501"/>
<stop offset="0.859876" stop-color="#573E2A"/>
<stop offset="1" stop-color="#1F1F1F"/>
</linearGradient>
<linearGradient id="paint10_linear_245_5140" x1="-72.7896" y1="311.335" x2="471.75" y2="-11.289" gradientUnits="userSpaceOnUse">
<stop stop-color="#F59848"/>
<stop offset="0.258499" stop-color="#BD5103"/>
<stop offset="0.457186" stop-color="#BE5403"/>
<stop offset="0.528379" stop-color="#D28B00"/>
<stop offset="0.742859" stop-color="#CA7501"/>
<stop offset="0.859876" stop-color="#573E2A"/>
<stop offset="1" stop-color="#1F1F1F"/>
</linearGradient>
<linearGradient id="paint11_linear_245_5140" x1="-76.3264" y1="318.709" x2="507.65" y2="-28.5457" gradientUnits="userSpaceOnUse">
<stop stop-color="#F59848"/>
<stop offset="0.258499" stop-color="#BD5103"/>
<stop offset="0.457186" stop-color="#BE5403"/>
<stop offset="0.528379" stop-color="#D28B00"/>
<stop offset="0.742859" stop-color="#CA7501"/>
<stop offset="0.859876" stop-color="#573E2A"/>
<stop offset="1" stop-color="#1F1F1F"/>
</linearGradient>
<linearGradient id="paint12_linear_245_5140" x1="-79.8632" y1="326.063" x2="543.488" y2="-45.8506" gradientUnits="userSpaceOnUse">
<stop stop-color="#F59848"/>
<stop offset="0.258499" stop-color="#BD5103"/>
<stop offset="0.457186" stop-color="#BE5403"/>
<stop offset="0.528379" stop-color="#D28B00"/>
<stop offset="0.742859" stop-color="#CA7501"/>
<stop offset="0.859876" stop-color="#573E2A"/>
<stop offset="1" stop-color="#1F1F1F"/>
</linearGradient>
<linearGradient id="paint13_linear_245_5140" x1="-83.4001" y1="333.415" x2="579.317" y2="-63.16" gradientUnits="userSpaceOnUse">
<stop stop-color="#F59848"/>
<stop offset="0.258499" stop-color="#BD5103"/>
<stop offset="0.457186" stop-color="#BE5403"/>
<stop offset="0.528379" stop-color="#D28B00"/>
<stop offset="0.742859" stop-color="#CA7501"/>
<stop offset="0.859876" stop-color="#573E2A"/>
<stop offset="1" stop-color="#1F1F1F"/>
</linearGradient>
<linearGradient id="paint14_linear_245_5140" x1="-86.9317" y1="340.789" x2="615.176" y2="-80.3632" gradientUnits="userSpaceOnUse">
<stop stop-color="#F59848"/>
<stop offset="0.258499" stop-color="#BD5103"/>
<stop offset="0.457186" stop-color="#BE5403"/>
<stop offset="0.528379" stop-color="#D28B00"/>
<stop offset="0.742859" stop-color="#CA7501"/>
<stop offset="0.859876" stop-color="#573E2A"/>
<stop offset="1" stop-color="#1F1F1F"/>
</linearGradient>
<linearGradient id="paint15_linear_245_5140" x1="-90.4686" y1="348.142" x2="650.999" y2="-97.6685" gradientUnits="userSpaceOnUse">
<stop stop-color="#F59848"/>
<stop offset="0.258499" stop-color="#BD5103"/>
<stop offset="0.457186" stop-color="#BE5403"/>
<stop offset="0.528379" stop-color="#D28B00"/>
<stop offset="0.742859" stop-color="#CA7501"/>
<stop offset="0.859876" stop-color="#573E2A"/>
<stop offset="1" stop-color="#1F1F1F"/>
</linearGradient>
<linearGradient id="paint16_linear_245_5140" x1="-94.0055" y1="355.496" x2="686.819" y2="-114.973" gradientUnits="userSpaceOnUse">
<stop stop-color="#F59848"/>
<stop offset="0.258499" stop-color="#BD5103"/>
<stop offset="0.457186" stop-color="#BE5403"/>
<stop offset="0.528379" stop-color="#D28B00"/>
<stop offset="0.742859" stop-color="#CA7501"/>
<stop offset="0.859876" stop-color="#573E2A"/>
<stop offset="1" stop-color="#1F1F1F"/>
</linearGradient>
<linearGradient id="paint17_linear_245_5140" x1="-97.5423" y1="362.87" x2="722.691" y2="-132.229" gradientUnits="userSpaceOnUse">
<stop stop-color="#F59848"/>
<stop offset="0.258499" stop-color="#BD5103"/>
<stop offset="0.457186" stop-color="#BE5403"/>
<stop offset="0.528379" stop-color="#D28B00"/>
<stop offset="0.742859" stop-color="#CA7501"/>
<stop offset="0.859876" stop-color="#573E2A"/>
<stop offset="1" stop-color="#1F1F1F"/>
</linearGradient>
<linearGradient id="paint18_linear_245_5140" x1="-101.074" y1="370.222" x2="758.478" y2="-149.484" gradientUnits="userSpaceOnUse">
<stop stop-color="#F59848"/>
<stop offset="0.258499" stop-color="#BD5103"/>
<stop offset="0.457186" stop-color="#BE5403"/>
<stop offset="0.528379" stop-color="#D28B00"/>
<stop offset="0.742859" stop-color="#CA7501"/>
<stop offset="0.859876" stop-color="#573E2A"/>
<stop offset="1" stop-color="#1F1F1F"/>
</linearGradient>
</defs>
</svg>
