<svg id="tokenomics-big-svg" width="843" height="843" viewBox="0 0 843 843" fill="none" xmlns="http://www.w3.org/2000/svg">
<path d="M533.208 697.896C474.758 721.567 410.315 726.126 349.115 710.921L380.246 585.624C414.986 594.255 451.567 591.667 484.746 578.23L533.208 697.896Z" fill="#573E2A"/>
<path d="M718.883 398.611C723.636 461.492 708.36 524.264 675.245 577.93C642.129 631.597 592.875 673.401 534.54 697.354L485.502 577.922C518.615 564.326 546.575 540.596 565.373 510.132C584.17 479.669 592.842 444.037 590.143 408.342L718.883 398.611Z" fill="#D1A176"/>
<path d="M351.038 711.392C305.229 700.333 262.689 678.589 226.895 647.938C191.1 617.288 163.068 578.601 145.09 535.04C127.112 491.48 119.699 444.284 123.456 397.309C127.213 350.335 142.035 304.917 166.709 264.769L276.704 332.367C262.698 355.157 254.284 380.939 252.152 407.604C250.019 434.268 254.227 461.059 264.432 485.786C274.637 510.513 290.55 532.473 310.868 549.872C331.187 567.271 355.335 579.613 381.337 585.891L351.038 711.392Z" fill="#F59848"/>
<path d="M165.914 266.071C190.382 225.797 224.034 191.885 264.12 167.109C304.205 142.333 349.586 127.396 396.55 123.519C443.515 119.641 490.73 126.934 534.336 144.801C577.942 162.668 616.7 190.601 647.442 226.318L549.59 310.541C532.14 290.267 510.139 274.411 485.386 264.268C460.633 254.126 433.832 249.987 407.172 252.188C380.513 254.388 354.753 262.868 331.999 276.932C309.245 290.996 290.142 310.245 276.253 333.107L165.914 266.071Z" fill="#D28B00"/>
<path d="M647.479 226.36C688.608 274.162 713.548 333.758 718.724 396.606L590.053 407.204C587.115 371.529 572.958 337.7 549.611 310.565L647.479 226.36Z" fill="#BD5103"/>
<circle cx="413" cy="421" r="200" fill="url(#paint0_linear_245_4958)" fill-opacity="0.2"/>
<path d="M353.261 408.904L351.342 412.763L346.492 403L332.208 431.746H335.775L346.492 410.176L349.557 416.344L340.262 435.014H334.15L334.152 435.011H330.586L329 438.203H342.228L355.046 412.486L353.261 408.904Z" fill="white"/>
<path d="M358.678 419.782L356.901 416.217L353.121 423.687L358.83 435.014H351.69L349.773 430.503L347.893 434.244L349.576 438.203H363.98L356.734 423.618L358.678 419.782Z" fill="#F59848"/>
<path d="M496.627 424.284H462.245V435.878H496.627V424.284Z" fill="#F59848"/>
<path d="M468.306 426.998H471.003C473.006 426.998 474.371 428.231 474.371 430.08C474.371 431.928 473.004 433.162 471.003 433.162H468.306V426.998ZM470.949 432.196C472.324 432.196 473.215 431.36 473.215 430.082C473.215 428.805 472.324 427.969 470.949 427.969H469.45V432.196H470.949Z" fill="#1F1F1F"/>
<path d="M480.512 431.737H477.427L476.818 433.164H475.637L478.413 426.998H479.542L482.328 433.164H481.128L480.512 431.737ZM480.134 430.84L478.971 428.145L477.817 430.84H480.134Z" fill="#1F1F1F"/>
<path d="M483.915 430.082C483.915 428.261 485.326 426.912 487.238 426.912C489.153 426.912 490.562 428.251 490.562 430.082C490.562 431.914 489.15 433.252 487.238 433.252C485.323 433.252 483.915 431.904 483.915 430.082ZM489.408 430.082C489.408 428.822 488.483 427.915 487.238 427.915C485.996 427.915 485.068 428.822 485.068 430.082C485.068 431.342 485.994 432.249 487.238 432.249C488.48 432.247 489.408 431.342 489.408 430.082Z" fill="#1F1F1F"/>
<path d="M370.168 438.556C370.045 438.556 369.938 438.509 369.845 438.416C369.753 438.323 369.707 438.215 369.707 438.091C369.707 438.013 369.714 437.928 369.73 437.835L375.458 422.803C375.519 422.648 375.604 422.524 375.712 422.431C375.819 422.338 375.981 422.292 376.197 422.292H377.767C377.967 422.292 378.121 422.338 378.229 422.431C378.352 422.524 378.445 422.648 378.506 422.803L384.211 437.835C384.242 437.928 384.258 438.013 384.258 438.091C384.258 438.215 384.211 438.323 384.119 438.416C384.027 438.509 383.919 438.556 383.796 438.556H382.618C382.433 438.556 382.294 438.509 382.202 438.416C382.125 438.323 382.071 438.238 382.04 438.161L380.77 434.861H373.194L371.924 438.161C371.908 438.238 371.855 438.323 371.762 438.416C371.67 438.509 371.531 438.556 371.346 438.556H370.168ZM373.864 432.863H380.1L376.982 424.615L373.864 432.863Z" fill="white"/>
<path d="M387.258 438.556C387.089 438.556 386.958 438.509 386.866 438.416C386.773 438.308 386.727 438.176 386.727 438.021V422.849C386.727 422.679 386.773 422.547 386.866 422.454C386.958 422.346 387.089 422.292 387.258 422.292H392.501C394.087 422.292 395.365 422.532 396.335 423.012C397.305 423.492 398.014 424.204 398.46 425.149C398.907 426.079 399.138 427.225 399.153 428.588C399.169 429.285 399.176 429.897 399.176 430.424C399.176 430.95 399.169 431.554 399.153 432.236C399.122 433.661 398.884 434.846 398.437 435.791C398.006 436.72 397.313 437.417 396.358 437.882C395.419 438.331 394.172 438.556 392.617 438.556H387.258ZM388.991 436.581H392.501C393.564 436.581 394.411 436.433 395.042 436.139C395.673 435.845 396.127 435.372 396.405 434.722C396.697 434.071 396.851 433.212 396.867 432.143C396.897 431.678 396.913 431.275 396.913 430.935C396.913 430.578 396.913 430.23 396.913 429.889C396.913 429.533 396.897 429.13 396.867 428.681C396.836 427.178 396.482 426.071 395.804 425.358C395.127 424.63 393.987 424.266 392.386 424.266H388.991V436.581Z" fill="white"/>
<path d="M403.182 438.556C403.013 438.556 402.882 438.509 402.79 438.416C402.697 438.308 402.651 438.176 402.651 438.021V422.826C402.651 422.671 402.697 422.547 402.79 422.454C402.882 422.346 403.013 422.292 403.182 422.292H404.407C404.561 422.292 404.684 422.346 404.776 422.454C404.884 422.547 404.938 422.671 404.938 422.826V438.021C404.938 438.176 404.884 438.308 404.776 438.416C404.684 438.509 404.561 438.556 404.407 438.556H403.182Z" fill="white"/>
<path d="M409.498 438.556C409.329 438.556 409.198 438.509 409.105 438.416C409.013 438.308 408.967 438.176 408.967 438.021V422.849C408.967 422.679 409.013 422.547 409.105 422.454C409.198 422.346 409.329 422.292 409.498 422.292H415.134C416.874 422.292 418.252 422.702 419.268 423.523C420.284 424.344 420.792 425.56 420.792 427.171C420.792 428.363 420.492 429.339 419.892 430.098C419.306 430.842 418.506 431.361 417.489 431.655L421.046 437.835C421.093 437.928 421.116 438.013 421.116 438.091C421.116 438.215 421.062 438.323 420.954 438.416C420.862 438.509 420.754 438.556 420.631 438.556H419.522C419.26 438.556 419.068 438.486 418.945 438.346C418.821 438.207 418.714 438.068 418.621 437.928L415.272 432.027H411.23V438.021C411.23 438.176 411.176 438.308 411.069 438.416C410.976 438.509 410.845 438.556 410.676 438.556H409.498ZM411.23 430.052H415.041C416.196 430.052 417.058 429.812 417.628 429.332C418.198 428.836 418.483 428.108 418.483 427.147C418.483 426.203 418.198 425.482 417.628 424.987C417.074 424.491 416.211 424.243 415.041 424.243H411.23V430.052Z" fill="white"/>
<path d="M424.633 438.556C424.463 438.556 424.332 438.509 424.24 438.416C424.148 438.308 424.101 438.176 424.101 438.021V422.826C424.101 422.671 424.148 422.547 424.24 422.454C424.332 422.346 424.463 422.292 424.633 422.292H425.857C426.011 422.292 426.134 422.346 426.226 422.454C426.334 422.547 426.388 422.671 426.388 422.826V438.021C426.388 438.176 426.334 438.308 426.226 438.416C426.134 438.509 426.011 438.556 425.857 438.556H424.633Z" fill="white"/>
<path d="M429.886 438.556C429.716 438.556 429.585 438.501 429.493 438.393C429.401 438.284 429.355 438.153 429.355 437.998V436.999C429.355 436.766 429.401 436.581 429.493 436.441C429.585 436.302 429.655 436.201 429.701 436.139L438.293 424.313H430.094C429.94 424.313 429.809 424.266 429.701 424.173C429.609 424.065 429.562 423.933 429.562 423.779V422.849C429.562 422.679 429.609 422.547 429.701 422.454C429.809 422.346 429.94 422.292 430.094 422.292H440.556C440.726 422.292 440.857 422.346 440.949 422.454C441.041 422.547 441.088 422.679 441.088 422.849V423.848C441.088 424.034 441.057 424.189 440.995 424.313C440.949 424.437 440.88 424.553 440.787 424.661L432.288 436.534H440.787C440.957 436.534 441.088 436.588 441.18 436.697C441.288 436.79 441.342 436.921 441.342 437.092V438.021C441.342 438.176 441.288 438.308 441.18 438.416C441.088 438.509 440.957 438.556 440.787 438.556H429.886Z" fill="white"/>
<path d="M444.797 438.556C444.628 438.556 444.497 438.509 444.405 438.416C444.312 438.308 444.266 438.176 444.266 438.021V422.849C444.266 422.679 444.312 422.547 444.405 422.454C444.497 422.346 444.628 422.292 444.797 422.292H454.336C454.506 422.292 454.636 422.346 454.729 422.454C454.821 422.547 454.867 422.679 454.867 422.849V423.732C454.867 423.902 454.821 424.034 454.729 424.127C454.636 424.22 454.506 424.266 454.336 424.266H446.483V429.355H453.828C453.997 429.355 454.128 429.409 454.221 429.517C454.313 429.61 454.359 429.742 454.359 429.912V430.772C454.359 430.927 454.313 431.059 454.221 431.167C454.128 431.26 453.997 431.306 453.828 431.306H446.483V436.581H454.521C454.69 436.581 454.821 436.627 454.914 436.72C455.006 436.813 455.052 436.945 455.052 437.115V438.021C455.052 438.176 455.006 438.308 454.914 438.416C454.821 438.509 454.69 438.556 454.521 438.556H444.797Z" fill="white"/>
<defs>
<linearGradient id="paint0_linear_245_4958" x1="149.471" y1="-20.0959" x2="1029.6" y2="282.256" gradientUnits="userSpaceOnUse">
<stop stop-color="#F59848"/>
<stop offset="0.515115" stop-color="#BD5103"/>
<stop offset="0.859876" stop-color="#573E2A"/>
<stop offset="1" stop-color="#1F1F1F"/>
</linearGradient>
</defs>
</svg>
