<svg width="1440" height="148" viewBox="0 0 1440 148" fill="none" xmlns="http://www.w3.org/2000/svg">
<path fill-rule="evenodd" clip-rule="evenodd" d="M0 20.7848C0 19.1012 1.0556 17.6082 2.69093 17.2079C11.8978 14.9543 42.795 10.6141 65 45.9799C90.7144 86.9352 87.7689 48.0173 127.662 73.8725C129.43 75.018 131.822 74.6933 133.156 73.0628C169.812 28.2431 214.016 0.968861 259.924 44.3647C260.955 45.3397 262.447 45.7439 263.826 45.408C307.444 34.7806 349.922 58.2808 392.4 75.9799C436.8 93.9799 480 23.9798 523.2 17.9798C567.6 11.9798 608.63 105.98 654 75.9799C699.37 45.9799 741.6 117.98 786 93.9799C829.2 69.9799 872.4 71.9798 916.8 17.9798C960 -36.0202 1003.2 45.9799 1047.6 75.9799C1090.36 105.676 1133.12 0.154533 1177.05 44.5684C1177.89 45.4163 1179.13 45.9385 1180.32 45.8761C1285.75 40.3523 1309.92 67.5095 1309.39 101.682C1309.35 104.004 1311.18 105.983 1313.5 105.941C1355.32 105.191 1397.52 93.7811 1418.4 87.9799L1434.93 83.3883C1437.48 82.6804 1440 84.5971 1440 87.2424V149.98C1440 152.189 1438.21 153.98 1436 153.98H1418.4C1396.8 153.98 1352.4 153.98 1309.2 153.98C1266 153.98 1221.6 153.98 1178.4 153.98C1134 153.98 1090.8 153.98 1047.6 153.98C1003.2 153.98 960 153.98 916.8 153.98C872.4 153.98 829.2 153.98 786 153.98C741.6 153.98 654 153.98 654 153.98C610.8 153.98 567.6 153.98 523.2 153.98C480 153.98 436.8 153.98 392.4 153.98C349.2 153.98 306 153.98 261.6 153.98C218.4 153.98 174 153.98 130.8 153.98C87.6 153.98 43.2 153.98 21.6 153.98H4C1.79087 153.98 0 152.189 0 149.98V20.7848Z" fill="url(#paint0_linear_245_5161)" fill-opacity="0.05"/>
<defs>
<linearGradient id="paint0_linear_245_5161" x1="-228.706" y1="-92.8098" x2="84.1972" y2="912.436" gradientUnits="userSpaceOnUse">
<stop stop-color="#F59848"/>
<stop offset="0.258499" stop-color="#BD5103"/>
<stop offset="0.457186" stop-color="#BE5403"/>
<stop offset="0.528379" stop-color="#D28B00"/>
<stop offset="0.742859" stop-color="#CA7501"/>
<stop offset="0.859876" stop-color="#573E2A"/>
<stop offset="1" stop-color="#1F1F1F"/>
</linearGradient>
</defs>
</svg>
