<svg width="428" height="82" viewBox="0 0 428 82" fill="none" xmlns="http://www.w3.org/2000/svg">
<path fill-rule="evenodd" clip-rule="evenodd" d="M0 15.3129C0 14.1937 0.463867 13.0972 1.46865 12.6043C4.8135 10.9635 13.1832 9.87579 19.3194 34.6687C25.8297 60.9727 26.1593 43.5794 33.4424 49.8954C36.0832 52.1856 40.6145 51.8538 41.7723 48.5556C51.8047 19.9741 63.5494 4.17245 75.7531 30.0577C76.8448 32.3733 79.7789 33.2002 82.2634 32.5831C93.8842 29.6969 105.257 45.2674 116.63 57.2886C129.827 70.8605 142.667 18.0807 155.507 13.5567C168.703 9.03272 180.898 79.9085 194.383 57.2886C207.868 34.6687 220.42 88.9565 233.617 70.8605C246.457 52.7646 259.297 54.2725 272.493 13.5567C285.333 -27.1591 298.173 34.6687 311.37 57.2886C323.816 79.2138 336.261 3.38065 349.032 31.6604C349.809 33.3817 351.588 34.4644 353.469 34.2911C382.22 31.6425 389.172 51.1784 389.183 75.7901C389.184 78.0436 390.992 79.9258 393.224 79.6177C404.694 78.0348 415.843 70.3793 421.58 66.3365L421.696 66.2549C424.346 64.3875 428 66.2828 428 69.5246V112.1C428 114.309 426.209 116.1 424 116.1H421.58C415.16 116.1 401.963 116.1 389.123 116.1C376.283 116.1 363.087 116.1 350.247 116.1C337.05 116.1 324.21 116.1 311.37 116.1C298.173 116.1 285.333 116.1 272.493 116.1C259.297 116.1 246.457 116.1 233.617 116.1C220.42 116.1 194.383 116.1 194.383 116.1C181.543 116.1 168.703 116.1 155.507 116.1C142.667 116.1 129.827 116.1 116.63 116.1C103.79 116.1 90.95 116.1 77.7533 116.1C64.9133 116.1 51.7167 116.1 38.8767 116.1C26.0367 116.1 12.84 116.1 6.42 116.1H4C1.79086 116.1 0 114.309 0 112.1V15.3129Z" fill="#0F0600"/>
</svg>
